<?xml version="1.0" encoding="utf-8"?>
<!-- Generator: Adobe Illustrator 27.0.1, SVG Export Plug-In . SVG Version: 6.00 Build 0)  -->
<svg version="1.1" id="Layer_1" xmlns="http://www.w3.org/2000/svg" xmlns:xlink="http://www.w3.org/1999/xlink" x="0px" y="0px"
	 viewBox="0 0 168 168" style="enable-background:new 0 0 168 168;" xml:space="preserve">
<style type="text/css">
	.st0{fill:#165A69;}
	.st1{fill:#FFFFFF;}
	.st2{fill:#CE0000;}
</style>
<g>
	<g>
		<path d="M51.9,154.9c-6.6,13.7-17.2,11.5-25.5,2.4c5.2-0.2,9.4-1.7,11.8-6.4c1.7-3.6,2.3-7.5,2.3-11.6c-6.9-1-13.4-3-18.9-7.1
			c-8.7-6.4-13-18.4-10.4-28.7C13.7,93.4,25,87.4,34,91.6c2.4,1,4.3,3.3,6.6,5c0-3.1,0-6.4,0-9.7c0-0.5-1-1.2-1.9-1.4
			c-8-3.3-14.2-8.5-18.8-16c-8.9-14.8-0.9-36,17.2-40.8c3.8-1,3.8-1,3.5-5c-0.2-1.7-0.3-3.5-0.9-5.2c-1.2-4.9-4.7-7.6-9.7-8
			c-1-0.2-2.3-0.5-3.5-0.9c8-9.6,16.9-8.5,24.7,2.8c1.9-1.6,3.6-3.1,5.6-4.7c17-13.4,48-9.7,58.6,14.2c1.7,3.8,3.6,6.1,8.2,6.6
			c6.3,0.9,11.8,3.8,16.3,8.5c5.9,5.9,7.8,16.5,3.8,23.5c-3,5.2-9.2,7.8-14.9,6.3c-0.9-0.2-1.6-0.5-2.4-0.7
			c-0.2,0.3-0.2,0.5-0.2,0.5c0.2,3.8,2.1,5.4,5.9,6.4c13.9,3.3,24.8,15.5,25.5,28.1c0.9,17.7-8.7,33.9-29,38.6c-3,0.7-5.9,1-8.9,1.2
			c-1.7,0.2-2.6,0.7-3.3,2.4c-2.8,7.1-6.8,13.4-13.2,17.9c-12.9,9-34.1,9.9-48.3-3.3C54,156.6,53.2,155.9,51.9,154.9z M106.5,78.6
			L106.5,78.6c0.3-1,0.7-2.1,1-3.3c0.7-3-0.7-5-3.8-5.2c-1,0-2.3,0.5-3.3,0.5c-0.5,0-1.4,0-1.7-0.3c-0.3-0.2-0.3-1-0.2-1.6
			c0.2-0.5,0.5-1,0.7-1.6c-13-6.4-16.5-12.7-19.1-22.8c-0.3,1-0.5,1.9-0.7,2.6c-1.7,6.8-4.2,13-10.1,17.2
			c-9.4,6.6-19.6,7.3-30.2,3.5c-6.9-2.4-11.1-8.7-11.3-15.3c0-6.9,3.5-12.2,10.6-15.1c0.7-0.3,1.2-0.7,2.4-1.2
			c-4.5,0-9.7,3.5-12,7.8c-4.3,8.2-2.4,15.3,3.5,21.7c-1.2-0.7-2.1-1.4-3-2.3c-6.4-6.9-6.1-22.6,7.5-28.1c3.8-1.6,3.8-1.7,3.1-6.1
			c-0.7,0-1.4-0.2-2.1,0c-13.7,2.6-23.8,18.4-20.3,32c3.3,12.9,15.6,22.8,29.7,24.5c7.8,0.9,15.3,3.5,21.9,8.2
			c5.4,3.8,9,9,11.1,15.8c3.3-7.8,7.8-13.9,14.4-18.2s14.1-5.4,21.7-6.1c-4.9-1-9.4-0.2-13.9,1.2C92.8,89.5,85.8,96,81,105.3
			c0.2-3,1.4-5.4,4.2-8.5c8.3-9.9,19.3-13.7,32.8-13.6c-0.9-2.3-1.2-4.5-2.4-5.4c-1.4-0.9-3.8-0.3-5.7-0.3
			C108.8,78.1,107.7,78.4,106.5,78.6z M80.8,150.9c3.5-6.4,10.1-9.2,17.2-10.3c7.3-1,14.6-1.6,21.9-2.1c11.5-1,21.5-5,28.5-14.8
			c9.4-13,11.6-34.2-7.6-45.9c-4-2.4-8.3-4.2-13-4.9c0,4.9,3.8,8.7,2.4,13.7c0.7,0.5,1.6,1.2,2.4,1.9c0.7,0.7,1.4,1.4,2.1,2.1
			c-0.2,0-0.2,0.2-0.3,0.2c-1.6-1-3.1-1.9-4.7-3c-0.2,0.2-0.3,0.5-0.5,0.7c0.2,0.2,0.5,0.5,0.7,0.5c13.6,7.1,12.9,26.6,0.7,35.1
			c-6.9,4.9-14.8,4.5-22.6,2.8c-5.9-1.2-11.1-4-15.3-8.5c-1.9,8.3-5,11.8-10.8,12.2c-3.6,0.2-7.1-0.3-9.6-3.1
			c-2.1-2.6-3.3-5.9-5-8.9c-4,4.2-5.6,9.7-5.2,16c0.2,2.1,0.5,3.5,3.1,4c2.4,0.3,4.7,1.6,6.9,2.6c0.5,0.2,1,0.9,1.7,1.6
			c-3.8-1.2-7.1-2.4-10.4-3.5c-0.2,0.3-0.2,0.5-0.3,0.9c3.1,1.2,6.6,2.1,9.6,3.8C75.7,145.6,78,148.3,80.8,150.9z M132.7,57.9
			c0-0.3-0.2-0.7-0.2-1c0.7-4.7-3-7.8-7.5-6.4c-2.3,0.7-3.6,2.1-4.2,4.3c-0.5,3,0.5,5.6,3,7.5c5.2,4.2,13.7,2.6,17.4-3.5
			c3.1-5.4,3-10.9,0.7-16.5c-3.1-7.1-9.2-10.9-16.5-12.5c-8.3-1.9-17-3-25.5-4.5c-8-1.4-14.9-4.3-19.3-11.6
			c-0.2-0.2-0.3-0.2-0.7-0.3c-3.1,5.7-8,9.2-14.1,10.8c-1.7,0.5-2.6,1.2-2.8,3c-0.2,2.3-0.9,4.3-0.9,6.6c0,1.2,0.9,2.4,1.4,3.6
			c0,0.2,0,0.3,0,0.5c-0.5,0-0.9,0-1.7,0.2c2.4,1.9,4.3,3.5,6.6,5.2C69.7,35.8,74,32,81,32.2c6.8,0.2,10.9,4,11.8,11.3
			c6.6-6.4,14.4-8.9,23.1-7.6c6.4,0.9,12.5,2.4,17.4,7.1C137.6,47.3,137.4,54.4,132.7,57.9z M70.7,113c0.2,1.2,0.3,2.1,0.3,2.8
			c0,1-0.3,1.9-0.3,3c-0.2,6.4,3.6,10.8,9.7,10.8c6.3,0.2,10.8-4.2,10.8-10.4c0-1.7-0.2-3.5-0.2-5.2c3.1,4.9,6.9,8.7,13.2,10.6
			c-0.5-5.2-0.7-10.1-1.6-14.6c-0.9-4.7-2.6-9.2-3.8-13.6c6.4,1.4,10.1-1.2,8.5-6.8c-14.8,3.8-22.6,14.1-26.6,28.5
			c-0.5-15.5-9.4-23.5-23.3-27.8c0.3,3.1,0.3,5.7,0.9,8.3c1,5.6,2.3,10.9,3.6,16.5c0.5,1.7,1.9,3.1,3.3,5
			C67.1,117.3,68.6,115.4,70.7,113z M92.6,48.2c-0.2,0-0.5-0.2-0.7-0.2c0-1.2-0.2-2.6-0.2-3.8c-0.2-4.7-2.4-8-6.6-9.2
			c-7.3-2.3-14.4,3-14.4,10.6c0,1,0,1.9,0,3c-0.2,0-0.5,0.2-0.7,0.2c-1.6-3.1-3.3-6.1-7.5-7.5c1.4,2.6,2.6,4.7,3.6,6.6
			c-5.9,5.6-6.6,12.9-7.8,21c3.1-1.4,5.7-2.1,8.2-3.5c7.8-4.5,10.9-11.8,12.7-20.2c0.3-1.6,0.7-3.1,1-4.7c0.3-0.2,0.9-0.3,1.2-0.5
			c1.6,12.2,6.3,21.7,18.4,25.9c3.1-5,5.4-21,3.6-25.7C98.7,41.2,95.6,44.5,92.6,48.2z M40.3,136.3c-5.6-1.4-11.1-2.3-15.8-5.7
			c5.2,1.4,10.4,3,15.8,4.3c0.2-1.4,0.3-2.3,0.3-3.1c-0.2-5.9,1-4.7-4.7-5.6c-10.8-1.4-17.7-12.9-13.7-22.9c0.5-1.2,1.7-2.3,2.6-3.5
			c0.5,1.4,0.3,2.4,0.3,3.3c0,4.7,4.7,8.2,9.2,6.6c5.4-1.7,7.3-7.6,4.2-12.9c-3.3-5.6-10.4-7.3-16.9-4.2c-7.5,3.6-10.1,9.7-9.9,17.7
			C12.2,127.2,26.2,136.4,40.3,136.3z M121.3,126.2c9-0.5,17-9.4,17.5-18.9c0.3-6.1-3.1-15.3-10.6-16.5
			C126,102.6,123.7,114.2,121.3,126.2z M40.5,40c-5.2,0.3-9.9,6.8-10.3,12.9c-0.3,6.3,4.5,13.2,10.3,13.7
			C40.5,57.7,40.5,48.9,40.5,40z M24,106.2c-3,10.8,6.1,21.2,16.3,19.1c0.2-1.7,0.3-3.5,0.3-5.2c0-3.5,0-6.9,0-10.6
			C32.8,114.2,29,113.5,24,106.2z M134.1,54.1c1.4-2.4,1.4-5.6-0.2-8.2c-3-4.5-7.8-5.7-12.9-7.1c0.9,3.8,1.6,7.3,2.3,10.8
			C129.8,48.5,131.5,49.4,134.1,54.1z M63.8,142.3c3.3,8.2,9.2,12.2,15.6,10.9C77,145.6,70.4,144.6,63.8,142.3z M99.4,24.2
			c-2.8-6.4-9.9-10.8-16.7-10.3C86.2,20.9,92.4,22.6,99.4,24.2z M98.5,143.2c-6.9,0.5-14.2,5.2-15.3,10.1
			C89.8,152.3,95,149.1,98.5,143.2z M78.4,13.9c-6.3-0.2-12.2,4-13.9,9.7C70.4,22.1,75.1,19.2,78.4,13.9z M55.9,156.2
			c0,0.2,0,0.3,0,0.3c16,0,32,0,47.8,0c0-0.2,0-0.3,0-0.3C87.9,156.2,71.9,156.2,55.9,156.2z M57.2,8.4c0,0.2,0,0.2,0.2,0.3
			c15.3,0,30.6,0,45.9,0c0-0.2,0-0.2,0-0.3C87.9,8.4,72.4,8.4,57.2,8.4z M101.5,7.2c0-0.2,0-0.2,0-0.3c-13.9,0-27.8,0-41.7,0
			c0,0.2,0,0.2,0,0.3C73.5,7.2,87.4,7.2,101.5,7.2z M63.9,161.5c0,0.2,0,0.2,0,0.3c10.8,0,21.5,0,32.5,0c0-0.2,0-0.2,0-0.3
			C85.7,161.5,74.9,161.5,63.9,161.5z M62.7,5.1c0,0.2,0,0.3,0,0.5c11.8,0,23.8,0,35.6,0c0-0.2,0-0.3,0-0.5
			C86.5,5.1,74.5,5.1,62.7,5.1z M55.6,10.3c0,0.2,0,0.2,0,0.3c16.5,0,33,0,49.5,0c0-0.2,0-0.2,0-0.3C88.6,10.3,72.1,10.3,55.6,10.3z
			 M41,17.3c0,0.2,0,0.2,0,0.3c8,0,15.8,0,23.8,0c0-0.2,0-0.2,0-0.3C56.8,17.3,49,17.3,41,17.3z M63.6,19.3c0-0.2,0-0.2,0-0.3
			c-7.3,0-14.8,0-22.1,0c0,0.2,0,0.2,0,0.3C48.8,19.3,56.1,19.3,63.6,19.3z M58.7,158.2v0.2c14.2,0,28.3,0,42.6,0v-0.2
			C87,158.2,73,158.2,58.7,158.2z M107,12.2c0-0.2,0-0.2,0-0.3c-7.1,0-14.4,0-21.5,0c0,0.2,0,0.2,0,0.3
			C92.6,12.2,99.7,12.2,107,12.2z M62.9,146c0-0.2,0-0.2,0-0.3c-6.9,0-13.9,0-20.8,0c0,0.2,0,0.2,0,0.3C49,146,55.9,146,62.9,146z
			 M67.8,163.2c0,0.2,0,0.2,0,0.3c8,0,16,0,24,0c0-0.2,0-0.2,0-0.3C83.7,163.2,75.7,163.2,67.8,163.2z M42,45.4c0,0.2,0,0.2,0,0.3
			c6.8,0,13.7,0,20.5,0c0-0.2,0-0.2,0-0.3C55.8,45.4,48.8,45.4,42,45.4z M102.3,101.7c0,0.2,0,0.2,0,0.3c6.8,0,13.7,0,20.5,0
			c0-0.2,0-0.2,0-0.3C116.1,101.7,109.3,101.7,102.3,101.7z M42,22.5c0,0.2,0,0.2,0,0.3c6.6,0,13.2,0,19.6,0c0-0.2,0-0.2,0-0.3
			C55.2,22.5,48.6,22.5,42,22.5z M102.9,62.9c0,0.2,0,0.2,0,0.3c6.4,0,13,0,19.5,0c0-0.2,0-0.2,0-0.3
			C115.9,62.9,109.5,62.9,102.9,62.9z M53.3,12c0,0.2,0,0.2,0,0.3c6.6,0,13.4,0,20,0c0-0.2,0-0.2,0-0.3C66.5,12,59.9,12,53.3,12z
			 M101.6,100c0,0.2,0,0.2,0,0.3c7.1,0,14.4,0,21.5,0c0-0.2,0-0.2,0-0.3C116.1,100,108.8,100,101.6,100z M61.3,123.2
			c0-0.2,0-0.2,0-0.3c-6.4,0-12.9,0-19.1,0c0,0.2,0,0.2,0,0.3C48.5,123.2,54.9,123.2,61.3,123.2z M42,47.1c0,0.2,0,0.2,0,0.3
			c6.6,0,13.2,0,19.8,0c0-0.2,0-0.2,0-0.3C55.2,47.1,48.6,47.1,42,47.1z M42,24.2c0,0.2,0,0.2,0,0.3c6.3,0,12.5,0,18.9,0
			c0-0.2,0-0.2,0-0.3C54.6,24.2,48.3,24.2,42,24.2z M61,159.9v0.2c12.7,0,25.5,0,38.2,0v-0.2C86.5,159.9,73.7,159.9,61,159.9z
			 M42.2,140.4c0,0.2,0,0.2,0,0.3c6.3,0,12.3,0,18.6,0c0-0.2,0-0.2,0-0.3C54.6,140.4,48.3,140.4,42.2,140.4z M60.8,118
			c0-0.2,0-0.2,0-0.3c-6.3,0-12.5,0-18.8,0c0,0.2,0,0.2,0,0.3C48.5,118,54.6,118,60.8,118z M60.3,40.5c0-0.2,0-0.2,0-0.3
			c-6.1,0-12.2,0-18.2,0c0,0.2,0,0.2,0,0.3C48.1,40.5,54.2,40.5,60.3,40.5z M123.9,68.7c0-0.2,0-0.2,0-0.3c-6.1,0-12.3,0-18.4,0
			c0,0.2,0,0.2,0,0.3C111.7,68.7,117.8,68.7,123.9,68.7z M60.3,124.8c0-0.2,0-0.2,0-0.3c-6.1,0-12.2,0-18.2,0c0,0.2,0,0.2,0,0.3
			C48.1,124.8,54.2,124.8,60.3,124.8z M103.7,106.9c0,0.2,0,0.3,0,0.3c6.1,0,12.2,0,18.2,0c0-0.2,0-0.3,0-0.3
			C115.9,106.9,109.8,106.9,103.7,106.9z M59.8,51.1c0-0.2,0-0.2,0-0.3c-5.9,0-11.8,0-17.7,0c0,0.2,0,0.2,0,0.3
			C47.9,51.1,53.9,51.1,59.8,51.1z M59.8,29.9c0-0.2,0-0.2,0-0.3c-5.9,0-11.8,0-17.7,0c0,0.2,0,0.2,0,0.3
			C47.9,29.9,53.9,29.9,59.8,29.9z M42,34.8c0,0.2,0,0.2,0,0.3c5.9,0,11.8,0,17.7,0c0-0.2,0-0.2,0-0.3C53.9,34.8,47.9,34.8,42,34.8z
			 M42,135.1c0,0.2,0,0.2,0,0.3c5.9,0,11.8,0,17.7,0c0-0.2,0-0.2,0-0.3C53.9,135.1,47.9,135.1,42,135.1z M103,61.2
			c0,0.2,0,0.2,0,0.3c5.9,0,11.8,0,17.7,0c0-0.2,0-0.2,0-0.3C114.8,61.2,108.9,61.2,103,61.2z M59.6,130.2c0-0.2,0-0.2,0-0.3
			c-5.9,0-11.6,0-17.5,0c0,0.2,0,0.2,0,0.3C47.9,130.2,53.9,130.2,59.6,130.2z M42.2,27.8c0,0.2,0,0.2,0,0.3c5.9,0,12,0,17.9,0
			c0-0.2,0-0.2,0-0.3C54.2,27.8,48.1,27.8,42.2,27.8z M42.2,133.5c0,0.2,0,0.2,0,0.3c5.9,0,11.6,0,17.5,0c0-0.2,0-0.2,0-0.3
			C53.9,133.5,47.9,133.5,42.2,133.5z M66.7,3.2c0,0.2,0,0.2,0,0.3c9.2,0,18.4,0,27.6,0c0-0.2,0-0.2,0-0.3
			C85.1,3.2,75.9,3.2,66.7,3.2z M42.2,33.2c0,0.2,0,0.3,0,0.3c5.9,0,11.6,0,17.5,0c0-0.2,0-0.3,0-0.3C53.9,33.2,47.9,33.2,42.2,33.2
			z M42.2,128.1c0,0.2,0,0.2,0,0.3c5.9,0,11.6,0,17.5,0c0-0.2,0-0.2,0-0.3C53.9,128.1,47.9,128.1,42.2,128.1z M106.8,96.3
			c0,0.2,0,0.2,0,0.3c5.7,0,11.5,0,17.2,0c0-0.2,0-0.2,0-0.3C118.3,96.3,112.6,96.3,106.8,96.3z M108.4,14.1c0-0.2,0-0.2,0-0.3
			c-5.7,0-11.5,0-17,0c0,0.2,0,0.2,0,0.3C97.1,14.1,102.7,14.1,108.4,14.1z M121.3,112.6c0-0.2,0-0.2,0-0.3c-5.6,0-11.1,0-16.7,0
			c0,0.2,0,0.2,0,0.3C110.1,112.6,115.7,112.6,121.3,112.6z M42,52.3c0,0.2,0,0.2,0,0.3c5.6,0,11.1,0,16.7,0c0-0.2,0-0.2,0-0.3
			C53.2,52.3,47.6,52.3,42,52.3z M42,112.3c0,0.2,0,0.3,0,0.3c5.4,0,10.8,0,16.2,0c0-0.2,0-0.3,0-0.3
			C52.8,112.3,47.4,112.3,42,112.3z M124.4,95.1c0-0.2,0-0.2,0-0.3c-5.4,0-10.8,0-16.2,0c0,0.2,0,0.2,0,0.3
			C113.6,95.1,119,95.1,124.4,95.1z M68.8,14.1c0-0.2,0-0.2,0-0.3c-5.6,0-11.1,0-16.5,0c0,0.2,0,0.2,0,0.3
			C57.7,14.1,63.2,14.1,68.8,14.1z M88.4,2c0-0.2,0-0.3,0-0.3c-5.7,0-11.5,0-17.2,0c0,0.2,0,0.3,0,0.3C77,2,82.7,2,88.4,2z
			 M105.1,50.8c0,0.2,0,0.3,0,0.3c5.2,0,10.6,0,15.8,0c0-0.2,0-0.3,0-0.3C115.5,50.8,110.3,50.8,105.1,50.8z M125.1,73.9
			c0-0.2,0-0.2,0-0.3c-5.2,0-10.4,0-15.6,0c0,0.2,0,0.2,0,0.3C114.7,73.9,119.9,73.9,125.1,73.9z M120.2,52.9c0-0.2,0-0.2,0-0.3
			c-5.2,0-10.3,0-15.5,0c0,0.2,0,0.2,0,0.3C110,52.9,115,52.9,120.2,52.9z M109.1,91.1c0,0.2,0,0.2,0,0.3c5.4,0,10.8,0,16.2,0
			c0-0.2,0-0.2,0-0.3C120.1,91.1,114.5,91.1,109.1,91.1z M93.1,151c0,0.2,0,0.2,0,0.3c5.2,0,10.3,0,15.5,0c0-0.2,0-0.2,0-0.3
			C103.4,151,98.2,151,93.1,151z M42,56c0,0.2,0,0.2,0,0.3c5.2,0,10.4,0,15.5,0c0-0.2,0-0.2,0-0.3C52.5,56,47.3,56,42,56z
			 M120.2,117.8c0-0.2,0-0.2,0-0.3c-5,0-9.9,0-14.9,0c0,0.2,0,0.2,0,0.3C110.1,117.8,115.2,117.8,120.2,117.8z M119.2,58.1
			c0-0.2,0-0.2,0-0.3c-5,0-10.1,0-15.1,0c0,0.2,0,0.2,0,0.3C109.1,58.1,114.1,58.1,119.2,58.1z M57.2,58.1c0-0.2,0-0.2,0-0.3
			c-5,0-10.1,0-15.1,0c0,0.2,0,0.2,0,0.3C47.1,58.1,52.1,58.1,57.2,58.1z M104.2,56c0,0.2,0,0.2,0,0.3c5,0,9.9,0,14.9,0
			c0-0.2,0-0.2,0-0.3C114.1,56,109.3,56,104.2,56z M56.6,107.4c0-0.2,0-0.2,0-0.3c-4.9,0-9.7,0-14.6,0c0,0.2,0,0.2,0,0.3
			C46.9,107.4,51.8,107.4,56.6,107.4z M52.3,151c0,0.2,0,0.2,0,0.3c5,0,9.9,0,14.9,0c0-0.2,0-0.2,0-0.3C62.2,151,57.2,151,52.3,151z
			 M105.1,47.1c0,0.2,0,0.2,0,0.3c5,0,9.9,0,14.9,0c0-0.2,0-0.2,0-0.3C115.2,47.1,110.1,47.1,105.1,47.1z M119.9,45.7
			c0-0.2,0-0.3,0-0.3c-4.9,0-9.7,0-14.6,0c0,0.2,0,0.3,0,0.3C110.1,45.7,115,45.7,119.9,45.7z M110.7,17.8c0-0.2,0-0.3,0-0.3
			c-4.9,0-9.6,0-14.4,0c0,0.2,0,0.3,0,0.3C101.1,17.8,106,17.8,110.7,17.8z M45.3,7.2c0-0.2,0-0.2,0-0.3c-4.7,0-9.6,0-14.2,0
			c0,0.2,0,0.2,0,0.3C35.8,7.2,40.7,7.2,45.3,7.2z M42,62.9c0,0.2,0,0.2,0,0.3c4.7,0,9.4,0,13.9,0c0-0.2,0-0.2,0-0.3
			C51.4,62.9,46.7,62.9,42,62.9z M42,61.4c0,0.2,0,0.2,0,0.3c4.9,0,9.6,0,14.4,0c0-0.2,0-0.2,0-0.3C51.8,61.4,46.9,61.4,42,61.4z
			 M105.3,122.9c0,0.2,0,0.2,0,0.3c4.7,0,9.2,0,13.9,0c0-0.2,0-0.2,0-0.3C114.5,122.9,109.8,122.9,105.3,122.9z M31.3,8.4
			c0,0.2,0,0.2,0,0.3c5.2,0,10.6,0,15.8,0c0-0.2,0-0.2,0-0.3C41.7,8.4,36.5,8.4,31.3,8.4z M111.7,19.3c0-0.2,0-0.2,0-0.3
			c-4.5,0-9,0-13.4,0c0,0.2,0,0.2,0,0.3C102.7,19.3,107.2,19.3,111.7,19.3z M118.7,124.8c0-0.2,0-0.2,0-0.3c-4.5,0-8.9,0-13.4,0
			c0,0.2,0,0.2,0,0.3C109.6,124.8,114.1,124.8,118.7,124.8z M105.3,40c0,0.2,0,0.2,0,0.3c4.5,0,9,0,13.6,0c0-0.2,0-0.2,0-0.3
			C114.1,40,109.8,40,105.3,40z M42,89.4c0,0.2,0,0.3,0,0.3c4.3,0,8.5,0,12.9,0c0-0.2,0-0.3,0-0.3C50.7,89.4,46.4,89.4,42,89.4z
			 M42.6,101.7c0,0.2,0,0.2,0,0.3c4.3,0,8.7,0,13,0c0-0.2,0-0.2,0-0.3C51.2,101.7,46.9,101.7,42.6,101.7z M78.4,155
			c0-0.2,0-0.2,0-0.3c-8,0-16.2,0-24.2,0c0,0.2,0,0.2,0,0.3C62.2,155,70.2,155,78.4,155z M42.2,96.3c0,0.2,0,0.2,0,0.3
			c4.3,0,8.5,0,12.9,0c0-0.2,0-0.2,0-0.3C50.7,96.3,46.4,96.3,42.2,96.3z M55.4,100.3c0-0.2,0-0.2,0-0.3c-4.5,0-9,0-13.4,0
			c0,0.2,0,0.2,0,0.3C46.6,100.3,51.1,100.3,55.4,100.3z M123.5,66.9v-0.2c-7.5,0-14.8,0-22.2,0v0.2
			C108.8,66.9,116.2,66.9,123.5,66.9z M42,94.6c0,0.2,0,0.2,0,0.3c4.3,0,8.7,0,12.9,0c0-0.2,0-0.2,0-0.3
			C50.7,94.6,46.4,94.6,42,94.6z M42,91.1c0,0.2,0,0.2,0,0.3c4.3,0,8.5,0,12.9,0c0-0.2,0-0.2,0-0.3C50.6,91.1,46.4,91.1,42,91.1z
			 M98.9,145.6c0,0.2,0,0.2,0,0.3c4.3,0,8.5,0,12.9,0c0-0.2,0-0.2,0-0.3C107.4,145.6,103.2,145.6,98.9,145.6z M100.4,22.6
			c0,0.2,0,0.2,0,0.3c4.3,0,8.7,0,13,0c0-0.2,0-0.2,0-0.3C109.1,22.6,104.8,22.6,100.4,22.6z M114.3,24.7c0-0.2,0-0.3,0-0.3
			c-4.3,0-8.5,0-12.9,0c0,0.2,0,0.3,0,0.3C105.6,24.7,110,24.7,114.3,24.7z M47.6,156.6c0-0.2,0-0.2,0-0.3c-4.2,0-8.2,0-12.3,0
			c0,0.2,0,0.2,0,0.3C39.4,156.6,43.4,156.6,47.6,156.6z M82.9,154.5c0,0.2,0,0.2,0,0.3c7.6,0,15.3,0,22.8,0c0-0.2,0-0.2,0-0.3
			C98,154.5,90.3,154.5,82.9,154.5z M49.2,12.4c0-0.2,0-0.3,0-0.3c-3.8,0-7.5,0-11.3,0c0,0.2,0,0.3,0,0.3
			C41.7,12.4,45.3,12.4,49.2,12.4z M104.9,114c0,0.2,0,0.2,0,0.3c5.2,0,10.6,0,15.8,0c0-0.2,0-0.2,0-0.3
			C115.4,114,110.1,114,104.9,114z M101.1,98.2l0.2,0.2c7.5,0,14.8,0,22.2,0v-0.2C116.1,98.2,108.6,98.2,101.1,98.2z M41.9,147.6
			v0.2c7.3,0,14.4,0,21.7,0v-0.2C56.3,147.6,49.2,147.6,41.9,147.6z M102.2,64.9c0,0.2,0,0.2,0,0.3c6.9,0,13.9,0,21,0
			c0-0.2,0-0.2,0-0.3C116.2,64.9,109.1,64.9,102.2,64.9z M44.8,68.2c0,0.2,0,0.2-0.2,0.3c3.6,0,7.1,0,10.8,0c0-0.2,0-0.2,0-0.3
			C51.9,68.2,48.3,68.2,44.8,68.2z M39.4,13.8c0,0.2,0,0.2,0,0.3c3.5,0,6.8,0,10.3,0c0-0.2,0-0.2,0-0.3
			C46.2,13.8,42.7,13.8,39.4,13.8z M42.4,119.2c0,0,0,0.2,0.2,0.2c6.8,0,13.4,0,20.2,0v-0.2C55.9,119.2,49.2,119.2,42.4,119.2z
			 M61.7,144.3c0-0.2,0-0.2,0-0.3c-6.4,0-12.9,0-19.3,0c0,0.2,0,0.2,0,0.3C48.8,144.3,55.2,144.3,61.7,144.3z M62,121.3v-0.2
			c-6.6,0-13,0-19.6,0v0.2C48.8,121.3,55.4,121.3,62,121.3z M61.3,44c0-0.2,0-0.2,0-0.3c-6.4,0-12.7,0-19.1,0c0,0.2,0,0.2,0,0.3
			C48.6,44,55.1,44,61.3,44z M125.3,75.6c0-0.2,0-0.2,0-0.3c-3.6,0-7.3,0-10.9,0c0,0.2,0,0.2,0,0.3C118,75.6,121.6,75.6,125.3,75.6z
			 M62,21.1v-0.2c-6.6,0-13.2,0-19.8,0v0.2C48.8,21.1,55.4,21.1,62,21.1z M49.7,151.4c0-0.2,0-0.2,0-0.3c-3.3,0-6.4,0-9.7,0
			c0,0.2,0,0.2,0,0.3C43.3,151.4,46.6,151.4,49.7,151.4z M103.2,103.4v0.2c6.4,0,12.9,0,19.5,0v-0.2
			C116.2,103.4,109.6,103.4,103.2,103.4z M116.4,89.4c0,0.2,0,0.2,0,0.3c3.1,0,6.4,0,9.6,0c0-0.2,0-0.2,0-0.3
			C122.8,89.4,119.5,89.4,116.4,89.4z M43.1,5.4c0-0.2,0-0.2,0-0.3c-3,0-6.1,0-9,0c0,0.2,0,0.2,0,0.3C37.2,5.4,40.1,5.4,43.1,5.4z
			 M103.4,105.3c0,0.2,0,0.2,0,0.3c6.3,0,12.5,0,18.8,0c0-0.2,0-0.2,0-0.3C115.9,105.3,109.6,105.3,103.4,105.3z M61.2,142.5v-0.2
			c-6.3,0-12.5,0-18.6,0v0.2C48.6,142.5,54.9,142.5,61.2,142.5z M59.8,38.8c0-0.2,0-0.2,0-0.3c-5.9,0-11.8,0-17.7,0
			c0,0.2,0,0.2,0,0.3C47.9,38.8,53.9,38.8,59.8,38.8z M60.6,42.3v-0.2c-6.1,0-12,0-18.1,0v0.2C48.5,42.3,54.6,42.3,60.6,42.3z
			 M42.4,138.7c0,0.2,0,0.2,0,0.3c5.9,0,11.8,0,17.7,0c0-0.2,0-0.2,0-0.3C54.4,138.7,48.3,138.7,42.4,138.7z M119,84.1
			c0,0.2,0,0.3,0,0.3c3,0,5.9,0,8.7,0c0-0.2,0-0.3,0-0.3C124.7,84.1,122,84.1,119,84.1z M42.2,49v0.2c6.1,0,12.2,0,18.2,0V49
			C54.6,49,48.5,49,42.2,49z M53,152.8v0.2c5.6,0,11.1,0,16.7,0v-0.2C64.1,152.8,58.5,152.8,53,152.8z M42.4,26.1v0.2
			c5.9,0,11.8,0,17.7,0v-0.2C54.2,26.1,48.3,26.1,42.4,26.1z M60.1,126.5v-0.2c-5.9,0-11.8,0-17.7,0v0.2
			C48.3,126.5,54.2,126.5,60.1,126.5z M118.5,85.7c0,0.2,0,0.2,0,0.3c2.8,0,5.7,0,8.5,0c0-0.2,0-0.2,0-0.3
			C124.2,85.7,121.4,85.7,118.5,85.7z M59.4,116.1c0,0,0-0.2,0.2-0.2c-5.7,0-11.3,0-17,0v0.2C48.1,116.1,53.7,116.1,59.4,116.1z
			 M107,153.1c0-0.2,0-0.2,0-0.3c-5.7,0-11.3,0-17,0c0,0.2,0,0.2,0,0.3C95.7,153.1,101.3,153.1,107,153.1z M59.4,36.9
			c0-0.2,0-0.2,0-0.3c-5.7,0-11.3,0-17,0c0,0.2,0,0.2,0,0.3C48.1,36.9,53.9,36.9,59.4,36.9z M59.4,31.7v-0.2c-5.7,0-11.3,0-17,0v0.2
			C47.9,31.7,53.7,31.7,59.4,31.7z M42.4,131.6v0.2c5.7,0,11.3,0,17,0v-0.2C53.7,131.6,47.9,131.6,42.4,131.6z M104.4,108.8v0.2
			c5.7,0,11.3,0,17,0v-0.2C115.7,108.8,110.1,108.8,104.4,108.8z M59.2,137.1l0.2-0.2c-5.7,0-11.5,0-17,0v0.2
			C47.9,137.1,53.7,137.1,59.2,137.1z M42.4,114c0,0.2,0,0.2,0.2,0.3c5.4,0,10.8,0,16,0c0-0.2,0-0.2,0-0.3
			C53.2,114,47.8,114,42.4,114z M118.3,78.9c0,0.2,0,0.2,0,0.3c2.8,0,5.6,0,8.3,0c0-0.2,0-0.2,0-0.3
			C123.9,78.9,121.1,78.9,118.3,78.9z M55.6,66.9c0-0.2,0-0.2,0-0.3c-4.5,0-9,0-13.6,0c0,0.2,0,0.2,0,0.3
			C46.7,66.9,51.1,66.9,55.6,66.9z M120.9,110.9v-0.2c-5.6,0-10.9,0-16.5,0v0.2C110,110.9,115.4,110.9,120.9,110.9z M124.7,72.2
			c0-0.2,0-0.2,0-0.3c-5.2,0-10.3,0-15.5,0c0,0.2,0,0.2,0,0.3C114.5,72.2,119.7,72.2,124.7,72.2z M46.2,158.3v-0.2
			c-5.4,0-10.6,0-16,0v0.2C35.4,158.3,40.8,158.3,46.2,158.3z M118.7,39c0-0.2,0-0.2,0-0.3c-4,0-8.2,0-12.2,0c0,0.2,0,0.2,0,0.3
			C110.5,39,114.5,39,118.7,39z M124,70.4c0-0.2,0-0.2,0-0.3c-5.2,0-10.3,0-15.5,0c0,0.2,0,0.2,0,0.3C113.8,70.4,119,70.4,124,70.4z
			 M103.9,59.5v0.2c5.2,0,10.3,0,15.5,0v-0.2C114.3,59.5,109.1,59.5,103.9,59.5z M118.7,42.3c0-0.2,0.2-0.2,0.2-0.3
			c-4.3,0-8.7,0-13,0c0,0.2,0,0.2,0,0.3C110.1,42.3,114.5,42.3,118.7,42.3z M42.4,54.3c0,0.2,0,0.2,0,0.3c5.2,0,10.4,0,15.6,0
			c0-0.2,0-0.2,0-0.3C52.8,54.3,47.6,54.3,42.4,54.3z M124.6,93.2c0-0.2,0-0.2,0-0.3c-5.2,0-10.4,0-15.5,0c0,0.2,0,0.2,0,0.3
			C114.3,93.2,119.5,93.2,124.6,93.2z M57.3,110.7c0-0.2,0-0.2,0-0.3c-5,0-9.9,0-14.9,0c0,0.2,0,0.2,0,0.3
			C47.3,110.7,52.3,110.7,57.3,110.7z M94.2,15.5v0.2c5,0,10.1,0,15.1,0v-0.2C104.4,15.5,99.4,15.5,94.2,15.5z M120.4,49.2V49
			c-5,0-10.1,0-14.9,0v0.2C110.3,49.2,115.4,49.2,120.4,49.2z M105.5,115.8v0.2c4.9,0,9.7,0,14.4,0v-0.2
			C115,115.8,110.1,115.8,105.5,115.8z M56.8,59.8v-0.2c-4.9,0-9.6,0-14.4,0v0.2C47.3,59.8,51.9,59.8,56.8,59.8z M119.2,54.6
			c0-0.2,0.2-0.2,0.2-0.3c-4.9,0-9.7,0-14.4,0c0,0.2,0,0.2,0,0.3C109.6,54.6,114.3,54.6,119.2,54.6z M42.6,108.8l-0.2,0.2
			c4.9,0,9.6,0,14.4,0v-0.2C52.1,108.8,47.3,108.8,42.6,108.8z M105.5,43.7c0,0.2,0,0.2,0,0.3c4.7,0,9.2,0,13.9,0c0-0.2,0-0.2,0-0.3
			C114.7,43.7,110.1,43.7,105.5,43.7z M105.6,119.4c0,0.2,0,0.2,0,0.3c4.7,0,9.2,0,13.9,0c0-0.2,0-0.2,0-0.3
			C114.8,119.4,110.1,119.4,105.6,119.4z M112.1,144.3c0-0.2,0-0.2,0-0.3c-4,0-8.2,0-12.2,0c0,0.2,0,0.2,0,0.3
			C103.9,144.3,108.1,144.3,112.1,144.3z M119.2,121.3c0,0,0-0.2,0.2-0.2c-4.5,0-9.2,0-13.7,0v0.2
			C110.1,121.3,114.7,121.3,119.2,121.3z M109.6,149.5c0-0.2,0-0.2,0-0.3c-4.7,0-9.2,0-13.9,0c0,0.2,0,0.2,0,0.3
			C100.4,149.5,105.1,149.5,109.6,149.5z M52.3,15.5v0.2c4.7,0,9.4,0,14.1,0v-0.2C61.7,15.5,57,15.5,52.3,15.5z M97.6,147.6
			c0,0,0,0.2-0.2,0.2c4.3,0,8.9,0,13.2,0v-0.2C106.3,147.6,102,147.6,97.6,147.6z M56.3,105.5v-0.2c-4.3,0-8.9,0-13.2,0v0.2
			C47.4,105.5,51.8,105.5,56.3,105.5z M55.8,65c0-0.2,0-0.2,0-0.3c-4.5,0-8.9,0-13.4,0c0,0.2,0,0.2,0,0.3C46.9,65,51.2,65,55.8,65z
			 M55.8,103.8v-0.2c-4.3,0-8.7,0-13,0v0.2C47.1,103.8,51.4,103.8,55.8,103.8z M42.4,98.2v0.2c4.3,0,8.5,0,12.9,0v-0.2
			C50.9,98.2,46.6,98.2,42.4,98.2z M35.4,161.5c0,0.2,0,0.2,0,0.3c2.3,0,4.5,0,6.6,0c0-0.2,0-0.2,0-0.3
			C39.8,161.5,37.7,161.5,35.4,161.5z M99.6,20.9v0.2c4.3,0,8.5,0,12.9,0v-0.2C108.2,20.9,103.9,20.9,99.6,20.9z M64.6,149.5v-0.2
			c-4.2,0-8.2,0-12.3,0v0.2C56.5,149.5,60.6,149.5,64.6,149.5z M32.3,159.9L32.3,159.9c4.2,0.2,8.2,0.2,12.3,0.2v-0.2
			C40.5,159.9,36.3,159.9,32.3,159.9z M42.4,93v0.2c4.2,0,8.3,0,12.5,0V93C50.6,93,46.4,93,42.4,93z M101.3,142.2v0.2
			c4,0,7.8,0,11.8,0v-0.2C109.1,142.2,105.1,142.2,101.3,142.2z M47.8,10.6c0,0,0-0.2,0.2-0.2c-3.8,0-7.8,0-11.6,0v0.2
			C40.1,10.6,44,10.6,47.8,10.6z"/>
		<path class="st0" d="M106.5,78.6c1-0.2,2.3-0.5,3.3-0.5c1.9,0,4.3-0.5,5.7,0.3c1.2,0.7,1.6,3.1,2.4,5.4
			c-13.6-0.2-24.5,3.6-32.8,13.6c-2.8,3.1-4,5.6-4.2,8.5c4.9-9.4,11.8-15.8,21.5-18.9c4.5-1.4,9.2-2.3,13.9-1.2
			c-7.6,0.7-15.1,1.7-21.7,6.1S83.6,102.2,80.3,110c-2.1-6.9-5.7-12-11.1-15.8c-6.6-4.7-13.9-7.1-21.9-8.2
			c-14.1-1.7-26.4-11.5-29.7-24.5C14.1,48,24.1,32,37.9,29.6c0.7-0.2,1.4,0,2.1,0c0.9,4.3,0.7,4.5-3.1,6.1
			c-13.6,5.6-13.9,21-7.5,28.1c0.9,0.9,1.7,1.6,3,2.3c-5.9-6.6-8-13.7-3.5-21.7c2.4-4.3,7.6-7.8,12-7.8c-1.2,0.7-1.7,1-2.4,1.2
			c-7.1,3.1-10.8,8.2-10.6,15.1c0,6.6,4.3,12.7,11.3,15.3c10.6,3.8,20.8,3.1,30.2-3.5c5.9-4.2,8.3-10.6,10.1-17.2
			c0.2-0.7,0.3-1.6,0.7-2.6c2.6,10.1,6.1,16.3,19.1,22.8c-0.3,0.5-0.7,1-0.7,1.6c-0.2,0.5-0.2,1.4,0.2,1.6c0.3,0.3,1.2,0.3,1.7,0.3
			c1-0.2,2.3-0.7,3.3-0.5c3.1,0,4.5,2.3,3.8,5.2C107.4,76.3,106.8,77.4,106.5,78.6c-10.6-1.9-20-6.3-26.4-15.8
			c-5.9,12.2-16.7,14.6-28.3,15.5c12.5,0.7,22.4,5.6,28.7,16.5c0.7-1,1.4-2.6,2.4-3.6c5.9-6.6,13-11.1,22.2-11.8
			C105.5,79.1,106,78.8,106.5,78.6z M69.7,92.3c0-0.2,0.2-0.2,0.2-0.3c-1.2-0.9-2.3-2.1-3.6-2.6c-4-1.7-8-3.5-12-4.5
			c-6.3-1.7-12.9-2.1-18.8-5.2c-2.6-1.4-5.2-3-7.6-4.3c-0.2,0.2-0.5,0.5-0.7,0.7c0.5,0.2,1.2,0.3,1.6,0.7c4.7,3.5,9.9,6.1,15.6,7.3
			c4.7,1,9.6,1.7,14.1,3.3C62.4,88.5,66,90.6,69.7,92.3z M58.4,76.2C66.7,74.8,74,71.8,78,63.8C73.1,70.6,65.8,73.4,58.4,76.2z
			 M80.6,51.5c0,3.6,3.3,8.3,6.1,9.2C84.8,57.6,82.7,54.6,80.6,51.5z"/>
		<path class="st0" d="M80.8,150.9c-2.8-2.4-5.2-5.2-8-6.9c-3-1.7-6.4-2.6-9.6-3.8c0.2-0.3,0.2-0.5,0.3-0.9c3.3,1,6.6,2.3,10.4,3.5
			c-0.7-0.7-1-1.2-1.7-1.6c-2.3-1-4.5-2.1-6.9-2.6c-2.6-0.5-3.1-1.7-3.1-4c-0.3-6.3,1.2-11.6,5.2-16c1.6,3,3,6.3,5,8.9
			c2.3,2.8,5.9,3.3,9.6,3.1c5.7-0.3,8.9-3.8,10.8-12.2c4.3,4.5,9.4,7.3,15.3,8.5c7.8,1.6,15.6,2.1,22.6-2.8
			c12-8.3,12.9-27.8-0.7-35.1c-0.3-0.2-0.5-0.3-0.7-0.5c0.2-0.2,0.3-0.5,0.5-0.7c1.6,1,3.1,1.9,4.7,3c0.2,0,0.2-0.2,0.3-0.2
			c-0.7-0.7-1.4-1.4-2.1-2.1c-0.9-0.7-1.6-1.2-2.4-1.9c1.2-5-2.4-8.9-2.4-13.7c4.7,0.7,9,2.4,13,4.9c19.3,11.6,16.9,32.8,7.6,45.9
			c-6.9,9.7-16.9,13.7-28.5,14.8c-7.3,0.7-14.6,1-21.9,2.1C90.9,141.7,84.3,144.3,80.8,150.9z M81.5,147.4c5.6-6.1,12.9-8,20.5-8.9
			c6.4-0.7,13-1,19.5-1.7c15.6-1.6,28.1-10.6,31.6-26.6c1.9-9,1.2-17.7-5.2-25.2c-0.5-0.7-1.2-1.2-1.9-1.9c1,2.6,2.8,4.7,4,6.9
			c5.2,10.4,3.5,20.5-2.3,30.1c-6.9,11.3-18.1,15.1-30.6,15.8c-6.9,0.5-14.1,1-21,2.3C90.2,139.4,84.8,141.8,81.5,147.4z
			 M70.5,127.9c-1-2.1-2.3-4.3-3.3-6.4C66.9,124.5,67.9,126.5,70.5,127.9z"/>
		<path class="st0" d="M132.7,57.9c4.7-3.5,4.9-10.6,0.5-14.9c-4.9-4.7-10.9-6.3-17.4-7.1c-8.7-1.2-16.3,1.2-23.1,7.6
			c-0.9-7.3-5-11.1-11.8-11.3C74,32,69.7,36,68.5,43.1c-2.3-1.7-4.2-3.3-6.6-5.2c1,0,1.4-0.2,1.7-0.2c0-0.2,0-0.3,0-0.5
			c-0.5-1.2-1.4-2.4-1.4-3.6c0-2.3,0.5-4.3,0.9-6.6c0.2-1.7,1-2.6,2.8-3c6.1-1.6,10.9-5,14.1-10.8c0.3,0.2,0.7,0.2,0.7,0.3
			c4.3,7.5,11.3,10.3,19.3,11.6c8.5,1.6,17,2.6,25.5,4.5c7.1,1.6,13.4,5.4,16.5,12.5c2.4,5.6,2.6,11.1-0.7,16.5
			c-3.5,6.1-12,7.6-17.4,3.5c-2.4-1.9-3.5-4.5-3-7.5c0.3-2.3,1.9-3.6,4.2-4.3c4.5-1.4,8.2,1.6,7.5,6.4
			C132.6,57.2,132.7,57.6,132.7,57.9z M135.9,43.7c-4.9-8-13.2-9.4-21.5-10.3c-8-0.9-16.5,2.1-18.8,6.1
			C110.3,31.7,125.4,33.2,135.9,43.7z M136,37.2c0.5,0.7,0.9,1.4,1.4,2.1c3.1,3.8,4,8.2,3.6,12.9c-0.5,6.9-5.7,10.9-12.5,9.7
			c-1-0.2-2.3-0.3-3.6-0.5c4.7,3.5,11.5,2.3,14.9-2.3C144.4,53.2,142.5,41.6,136,37.2z M88.6,32.9c-3.5-3.3-7.8-3.6-12.2-2.4
			c-4.3,1.2-7.8,3.6-9,9C75.9,30.1,78.4,29.4,88.6,32.9z"/>
		<path class="st0" d="M40.3,136.3c-14.1,0-28.1-9-28.7-25.7c-0.2-8,2.4-14.1,9.9-17.7c6.4-3.1,13.6-1.4,16.9,4.2
			c3.1,5.2,1.2,10.9-4.2,12.9c-4.5,1.6-9.2-1.9-9.2-6.6c0-0.9,0.2-1.9-0.3-3.3c-0.9,1.2-2.1,2.1-2.6,3.5c-4,10.1,3,21.5,13.7,22.9
			c5.7,0.7,4.5-0.3,4.7,5.6c0,0.9-0.2,1.7-0.3,3.1c-5.6-1.6-10.6-3-15.8-4.3C29.2,134,34.7,135.1,40.3,136.3z M23.5,99.1
			c-3.3,1-4,3.8-4.5,6.8c-1,6.6,1.6,15.1,6.9,17.5C19.8,115.6,17.2,107.9,23.5,99.1z M27.8,107.1c3,2.8,6.6,2.6,9.2-0.2
			c1.9-2.1,2.4-7.6-1.2-10.6c0.7,3.1,3,6.1,0.5,9.2C34,108.5,31.1,108.5,27.8,107.1z"/>
		<path class="st1" d="M55.9,156.2c16,0,32,0,47.8,0c0,0.2,0,0.3,0,0.3c-16,0-32,0-47.8,0C55.9,156.6,55.9,156.4,55.9,156.2z"/>
		<path class="st1" d="M57.2,8.4c15.3,0,30.6,0,45.9,0c0,0.2,0,0.2,0,0.3c-15.3,0-30.6,0-45.9,0C57.3,8.7,57.3,8.6,57.2,8.4z"/>
		<path class="st1" d="M101.5,7.2c-13.9,0-27.8,0-41.7,0c0-0.2,0-0.2,0-0.3c13.9,0,27.8,0,41.7,0C101.5,7,101.5,7,101.5,7.2z"/>
		<path class="st1" d="M62.7,5.1c11.8,0,23.8,0,35.6,0c0,0.2,0,0.3,0,0.5c-11.8,0-23.8,0-35.6,0C62.7,5.3,62.7,5.1,62.7,5.1z"/>
		<path class="st1" d="M55.6,10.3c16.5,0,33,0,49.5,0c0,0.2,0,0.2,0,0.3c-16.5,0-33,0-49.5,0C55.6,10.5,55.6,10.5,55.6,10.3z"/>
		<path class="st1" d="M41,17.3c8,0,15.8,0,23.8,0c0,0.2,0,0.2,0,0.3c-8,0-15.8,0-23.8,0C41,17.4,41,17.4,41,17.3z"/>
		<path class="st1" d="M63.6,19.3c-7.3,0-14.8,0-22.1,0c0-0.2,0-0.2,0-0.3c7.3,0,14.8,0,22.1,0C63.6,19.2,63.6,19.3,63.6,19.3z"/>
		<path class="st1" d="M107,12.2c-7.1,0-14.4,0-21.5,0c0-0.2,0-0.2,0-0.3c7.1,0,14.4,0,21.5,0C107,12,107,12.2,107,12.2z"/>
		<path class="st1" d="M62.9,146c-6.9,0-13.9,0-20.8,0c0-0.2,0-0.2,0-0.3c6.9,0,13.9,0,20.8,0C62.9,145.8,62.9,146,62.9,146z"/>
		<path class="st1" d="M42,45.4c6.8,0,13.7,0,20.5,0c0,0.2,0,0.2,0,0.3c-6.8,0-13.7,0-20.5,0C42,45.7,42,45.6,42,45.4z"/>
		<path class="st1" d="M102.3,101.7c6.8,0,13.7,0,20.5,0c0,0.2,0,0.2,0,0.3c-6.8,0-13.7,0-20.5,0
			C102.3,101.9,102.3,101.7,102.3,101.7z"/>
		<path class="st1" d="M61.7,22.5c0,0.2,0,0.2,0,0.3c-6.6,0-13.2,0-19.6,0c0-0.2,0-0.2,0-0.3"/>
		<path class="st1" d="M102.9,62.9c6.4,0,13,0,19.5,0c0,0.2,0,0.2,0,0.3c-6.4,0-13,0-19.5,0C102.9,63.1,102.9,63.1,102.9,62.9z"/>
		<path class="st1" d="M53.3,12c6.6,0,13.4,0,20,0c0,0.2,0,0.2,0,0.3c-6.6,0-13.4,0-20,0C53.3,12.2,53.3,12,53.3,12z"/>
		<path class="st1" d="M101.6,100c7.1,0,14.4,0,21.5,0c0,0.2,0,0.2,0,0.3c-7.1,0-14.4,0-21.5,0C101.6,100.1,101.6,100.1,101.6,100z"
			/>
		<path class="st1" d="M61.3,123.2c-6.4,0-12.9,0-19.1,0c0-0.2,0-0.2,0-0.3c6.4,0,12.9,0,19.1,0C61.3,122.9,61.3,123.1,61.3,123.2z"
			/>
		<path class="st1" d="M42,47.1c6.6,0,13.2,0,19.8,0c0,0.2,0,0.2,0,0.3c-6.6,0-13.2,0-19.8,0C42,47.3,42,47.3,42,47.1z"/>
		<path class="st1" d="M42,24.2c6.3,0,12.5,0,18.9,0c0,0.2,0,0.2,0,0.3c-6.3,0-12.5,0-18.9,0C42,24.4,42,24.4,42,24.2z"/>
		<path class="st1" d="M42.2,140.4c6.3,0,12.3,0,18.6,0c0,0.2,0,0.2,0,0.3c-6.3,0-12.3,0-18.6,0C42.2,140.6,42.2,140.4,42.2,140.4z"
			/>
		<path class="st1" d="M60.8,118c-6.3,0-12.5,0-18.8,0c0-0.2,0-0.2,0-0.3c6.3,0,12.5,0,18.8,0C60.8,117.7,60.8,117.8,60.8,118z"/>
		<path class="st1" d="M60.3,40.5c-6.1,0-12.2,0-18.2,0c0-0.2,0-0.2,0-0.3c6.1,0,12.2,0,18.2,0C60.3,40.4,60.3,40.5,60.3,40.5z"/>
		<path class="st1" d="M123.9,68.7c-6.1,0-12.3,0-18.4,0c0-0.2,0-0.2,0-0.3c6.1,0,12.3,0,18.4,0C123.9,68.3,123.9,68.5,123.9,68.7z"
			/>
		<path class="st1" d="M60.3,124.8c-6.1,0-12.2,0-18.2,0c0-0.2,0-0.2,0-0.3c6.1,0,12.2,0,18.2,0C60.3,124.6,60.3,124.8,60.3,124.8z"
			/>
		<path class="st1" d="M103.7,106.9c6.1,0,12.2,0,18.2,0c0,0.2,0,0.3,0,0.3c-6.1,0-12.2,0-18.2,0
			C103.5,107.3,103.5,107.1,103.7,106.9z"/>
		<path class="st1" d="M59.8,51.1c-5.9,0-11.8,0-17.7,0c0-0.2,0-0.2,0-0.3c5.9,0,11.8,0,17.7,0C59.8,51,59.8,51.1,59.8,51.1z"/>
		<path class="st1" d="M59.8,29.9c-5.9,0-11.8,0-17.7,0c0-0.2,0-0.2,0-0.3c5.9,0,11.8,0,17.7,0C59.8,29.8,59.8,29.9,59.8,29.9z"/>
		<path class="st1" d="M42,34.8c5.9,0,11.8,0,17.7,0c0,0.2,0,0.2,0,0.3c-5.9,0-11.8,0-17.7,0C42,35,42,35,42,34.8z"/>
		<path class="st1" d="M42,135.1c5.9,0,11.8,0,17.7,0c0,0.2,0,0.2,0,0.3c-5.9,0-11.8,0-17.7,0C42,135.4,42,135.2,42,135.1z"/>
		<path class="st1" d="M103,61.2c5.9,0,11.8,0,17.7,0c0,0.2,0,0.2,0,0.3c-5.9,0-11.8,0-17.7,0C103,61.6,103,61.4,103,61.2z"/>
		<path class="st1" d="M59.6,130.2c-5.9,0-11.6,0-17.5,0c0-0.2,0-0.2,0-0.3c5.9,0,11.6,0,17.5,0C59.6,130,59.6,130,59.6,130.2z"/>
		<path class="st1" d="M42.2,27.8c5.9,0,12,0,17.9,0c0,0.2,0,0.2,0,0.3c-5.9,0-12,0-17.9,0C42.2,28,42.2,28,42.2,27.8z"/>
		<path class="st1" d="M42.2,133.5c5.9,0,11.6,0,17.5,0c0,0.2,0,0.2,0,0.3c-5.9,0-11.6,0-17.5,0C42.2,133.7,42.2,133.5,42.2,133.5z"
			/>
		<path class="st1" d="M66.7,3.2c9.2,0,18.4,0,27.6,0c0,0.2,0,0.2,0,0.3c-9.2,0-18.4,0-27.6,0C66.7,3.4,66.7,3.4,66.7,3.2z"/>
		<path class="st1" d="M42.2,33.2c5.9,0,11.6,0,17.5,0c0,0.2,0,0.3,0,0.3c-5.9,0-11.6,0-17.5,0C42,33.4,42,33.2,42.2,33.2z"/>
		<path class="st1" d="M42.2,128.1c5.9,0,11.6,0,17.5,0c0,0.2,0,0.2,0,0.3c-5.9,0-11.6,0-17.5,0C42.2,128.4,42.2,128.3,42.2,128.1z"
			/>
		<path class="st1" d="M106.8,96.3c5.7,0,11.5,0,17.2,0c0,0.2,0,0.2,0,0.3c-5.7,0-11.5,0-17.2,0C106.8,96.7,106.8,96.5,106.8,96.3z"
			/>
		<path class="st1" d="M108.4,14.1c-5.7,0-11.5,0-17,0c0-0.2,0-0.2,0-0.3c5.7,0,11.5,0,17,0C108.4,13.8,108.4,13.9,108.4,14.1z"/>
		<path class="st1" d="M121.3,112.6c-5.6,0-11.1,0-16.7,0c0-0.2,0-0.2,0-0.3c5.6,0,11.1,0,16.7,0
			C121.3,112.5,121.3,112.5,121.3,112.6z"/>
		<path class="st1" d="M42,52.3c5.6,0,11.1,0,16.7,0c0,0.2,0,0.2,0,0.3c-5.6,0-11.1,0-16.7,0C42,52.7,42,52.5,42,52.3z"/>
		<path class="st1" d="M42,112.3c5.4,0,10.8,0,16.2,0c0,0.2,0,0.3,0,0.3c-5.4,0-10.8,0-16.2,0C42,112.5,42,112.3,42,112.3z"/>
		<path class="st1" d="M124.4,95.1c-5.4,0-10.8,0-16.2,0c0-0.2,0-0.2,0-0.3c5.4,0,10.8,0,16.2,0C124.4,94.9,124.4,95.1,124.4,95.1z"
			/>
		<path class="st1" d="M68.8,14.1c-5.6,0-11.1,0-16.5,0c0-0.2,0-0.2,0-0.3c5.6,0,11.1,0,16.5,0C68.8,13.9,68.8,13.9,68.8,14.1z"/>
		<path class="st1" d="M88.4,2C82.7,2,77,2,71.2,2c0-0.2,0-0.3,0-0.3c5.7,0,11.5,0,17.2,0C88.4,1.8,88.4,1.8,88.4,2z"/>
		<path class="st1" d="M105.1,50.8c5.2,0,10.6,0,15.8,0c0,0.2,0,0.3,0,0.3c-5.2,0-10.6,0-15.8,0C105.1,51,105.1,50.8,105.1,50.8z"/>
		<path class="st1" d="M125.1,73.9c-5.2,0-10.4,0-15.6,0c0-0.2,0-0.2,0-0.3c5.2,0,10.4,0,15.6,0C125.1,73.7,125.1,73.9,125.1,73.9z"
			/>
		<path class="st1" d="M120.2,52.9c-5.2,0-10.3,0-15.5,0c0-0.2,0-0.2,0-0.3c5.2,0,10.3,0,15.5,0C120.2,52.5,120.2,52.7,120.2,52.9z"
			/>
		<path class="st1" d="M109.1,91.1c5.4,0,10.8,0,16.2,0c0,0.2,0,0.2,0,0.3c-5.4,0-10.8,0-16.2,0C109.1,91.3,109.1,91.3,109.1,91.1z"
			/>
		<path class="st1" d="M93.1,151c5.2,0,10.3,0,15.5,0c0,0.2,0,0.2,0,0.3c-5.2,0-10.3,0-15.5,0C93.1,151.2,93.1,151,93.1,151z"/>
		<path class="st1" d="M42,56c5.2,0,10.4,0,15.6,0c0,0.2,0,0.2,0,0.3c-5.2,0-10.4,0-15.5,0C42,56.2,42,56.2,42,56z"/>
		<path class="st1" d="M120.2,117.8c-5,0-10.1,0-14.9,0c0-0.2,0-0.2,0-0.3c5,0,9.9,0,14.9,0C120.2,117.7,120.2,117.8,120.2,117.8z"
			/>
		<path class="st1" d="M119.2,58.1c-5,0-10.1,0-15.1,0c0-0.2,0-0.2,0-0.3c5,0,10.1,0,15.1,0C119.2,57.9,119.2,58.1,119.2,58.1z"/>
		<path class="st1" d="M57.2,58.1c-5,0-10.1,0-14.9,0c0-0.2,0-0.2,0-0.3c5,0,10.1,0,15.1,0C57.2,57.9,57.2,58.1,57.2,58.1z"/>
		<path class="st1" d="M104.2,56c5,0,9.9,0,14.9,0c0,0.2,0,0.2,0,0.3c-5,0-9.9,0-14.9,0C104.2,56.2,104.2,56.2,104.2,56z"/>
		<path class="st1" d="M56.6,107.4c-4.9,0-9.7,0-14.6,0c0-0.2,0-0.2,0-0.3c4.9,0,9.7,0,14.6,0C56.6,107.1,56.6,107.3,56.6,107.4z"/>
		<path class="st1" d="M52.3,151c5,0,9.9,0,14.9,0c0,0.2,0,0.2,0,0.3c-5,0-9.9,0-14.9,0C52.3,151.2,52.3,151.2,52.3,151z"/>
		<path class="st1" d="M105.1,47.1c5,0,9.9,0,14.9,0c0,0.2,0,0.2,0,0.3c-5,0-9.9,0-14.9,0C105.1,47.3,105.1,47.3,105.1,47.1z"/>
		<path class="st1" d="M119.9,45.7c-4.9,0-9.7,0-14.6,0c0-0.2,0-0.3,0-0.3c4.9,0,9.7,0,14.6,0C119.9,45.6,119.9,45.7,119.9,45.7z"/>
		<path class="st1" d="M110.7,17.8c-4.9,0-9.6,0-14.4,0c0-0.2,0-0.3,0-0.3c4.9,0,9.6,0,14.4,0C110.7,17.4,110.7,17.6,110.7,17.8z"/>
		<path class="st1" d="M45.3,7.2c-4.7,0-9.6,0-14.2,0c0-0.2,0-0.2,0-0.3c4.7,0,9.6,0,14.2,0C45.3,7,45.3,7,45.3,7.2z"/>
		<path class="st1" d="M42,62.9c4.7,0,9.4,0,14.1,0c0,0.2,0,0.2,0,0.3c-4.7,0-9.4,0-13.9,0C42,63.1,42,63.1,42,62.9z"/>
		<path class="st1" d="M42,61.4c4.9,0,9.6,0,14.4,0c0,0.2,0,0.2,0,0.3c-4.9,0-9.6,0-14.4,0C42,61.6,42,61.4,42,61.4z"/>
		<path class="st1" d="M105.3,122.9c4.7,0,9.2,0,13.9,0c0,0.2,0,0.2,0,0.3c-4.7,0-9.2,0-13.9,0C105.3,123.1,105.3,122.9,105.3,122.9
			z"/>
		<path class="st1" d="M31.3,8.4c5.2,0,10.6,0,15.8,0c0,0.2,0,0.2,0,0.3c-5.2,0-10.6,0-15.8,0C31.3,8.6,31.3,8.6,31.3,8.4z"/>
		<path class="st1" d="M111.7,19.3c-4.5,0-9,0-13.6,0c0-0.2,0-0.2,0-0.3c4.5,0,9,0,13.4,0C111.7,19.2,111.7,19.3,111.7,19.3z"/>
		<path class="st1" d="M118.7,124.8c-4.5,0-8.9,0-13.4,0c0-0.2,0-0.2,0-0.3c4.5,0,8.9,0,13.4,0C118.7,124.6,118.7,124.8,118.7,124.8
			z"/>
		<path class="st1" d="M105.3,40c4.5,0,9,0,13.6,0c0,0.2,0,0.2,0,0.3c-4.5,0-9,0-13.6,0C105.3,40.4,105.3,40.2,105.3,40z"/>
		<path class="st1" d="M42,89.4c4.3,0,8.5,0,12.9,0c0,0.2,0,0.3,0,0.3c-4.3,0-8.5,0-12.9,0C42,89.5,42,89.5,42,89.4z"/>
		<path class="st1" d="M42.6,101.7c4.3,0,8.7,0,13,0c0,0.2,0,0.2,0,0.3c-4.3,0-8.7,0-13,0C42.6,101.9,42.6,101.7,42.6,101.7z"/>
		<path class="st1" d="M78.4,155c-8,0-16,0-24,0c0-0.2,0-0.2,0-0.3c8,0,16.2,0,24.2,0C78.4,154.9,78.4,154.9,78.4,155z"/>
		<path class="st1" d="M42.2,96.3c4.3,0,8.5,0,12.9,0c0,0.2,0,0.2,0,0.3c-4.3,0-8.5,0-12.9,0C42.2,96.5,42.2,96.5,42.2,96.3z"/>
		<path class="st1" d="M55.4,100.3c-4.5,0-9,0-13.4,0c0-0.2,0-0.2,0-0.3c4.5,0,9,0,13.4,0C55.4,100.1,55.4,100.3,55.4,100.3z"/>
		<path class="st1" d="M123.5,66.9c-7.5,0-14.8,0-22.2,0v-0.2c7.5,0,14.8,0,22.2,0C123.5,66.8,123.5,66.8,123.5,66.9z"/>
		<path class="st1" d="M42,94.6c4.3,0,8.7,0,12.9,0c0,0.2,0,0.2,0,0.3c-4.3,0-8.7,0-12.9,0C42,94.9,42,94.7,42,94.6z"/>
		<path class="st1" d="M42,91.1c4.2,0,8.5,0,12.7,0c0,0.2,0,0.2,0,0.3c-4.3,0-8.5,0-12.9,0C42,91.3,42,91.3,42,91.1z"/>
		<path class="st1" d="M98.9,145.6c4.3,0,8.5,0,12.9,0c0,0.2,0,0.2,0,0.3c-4.3,0-8.5,0-12.9,0C98.9,145.8,98.9,145.6,98.9,145.6z"/>
		<path class="st1" d="M100.4,22.6c4.3,0,8.7,0,13,0c0,0.2,0,0.2,0,0.3c-4.3,0-8.7,0-13,0C100.4,22.8,100.4,22.6,100.4,22.6z"/>
		<path class="st1" d="M114.3,24.7c-4.3,0-8.5,0-12.9,0c0-0.2,0-0.3,0-0.3c4.3,0,8.5,0,12.9,0C114.3,24.4,114.3,24.5,114.3,24.7z"/>
		<path class="st1" d="M47.6,156.6c-4.2,0-8.2,0-12.3,0c0-0.2,0-0.2,0-0.3c4.2,0,8.2,0,12.3,0C47.6,156.4,47.6,156.6,47.6,156.6z"/>
		<path class="st1" d="M82.9,154.5c7.6,0,15.1,0,22.8,0c0,0.2,0,0.2,0,0.3c-7.6,0-15.3,0-22.8,0C82.9,154.9,82.9,154.7,82.9,154.5z"
			/>
		<path class="st1" d="M49.2,12.4c-3.8,0-7.5,0-11.3,0c0-0.2,0-0.3,0-0.3c3.8,0,7.5,0,11.3,0C49.2,12.2,49.2,12.2,49.2,12.4z"/>
		<path class="st1" d="M104.9,114c5.2,0,10.6,0,15.8,0c0,0.2,0,0.2,0,0.3c-5.2,0-10.6,0-15.8,0C104.8,114.2,104.9,114,104.9,114z"/>
		<path class="st1" d="M101.1,98.2c7.5,0,14.9,0,22.4,0v0.2c-7.5,0-14.8,0-22.2,0C101.3,98.4,101.3,98.2,101.1,98.2z"/>
		<path class="st1" d="M41.9,147.6c7.3,0,14.4,0,21.7,0v0.2c-7.3,0-14.4,0-21.7,0C41.9,147.7,41.9,147.6,41.9,147.6z"/>
		<path class="st1" d="M102.2,64.9c6.9,0,13.9,0,21,0c0,0.2,0,0.2,0,0.3c-6.9,0-13.9,0-21,0C102.2,65,102.2,64.9,102.2,64.9z"/>
		<path class="st1" d="M44.8,68.2c3.5,0,7.1,0,10.6,0c0,0.2,0,0.2,0,0.3c-3.6,0-7.1,0-10.8,0C44.6,68.5,44.8,68.3,44.8,68.2z"/>
		<path class="st1" d="M39.4,13.8c3.5,0,6.8,0,10.3,0c0,0.2,0,0.2,0,0.3c-3.5,0-6.8,0-10.3,0C39.4,13.9,39.4,13.8,39.4,13.8z"/>
		<path class="st1" d="M42.4,119.2c6.8,0,13.6,0,20.2,0v0.2c-6.8,0-13.4,0-20.2,0C42.4,119.4,42.4,119.4,42.4,119.2z"/>
		<path class="st1" d="M61.7,144.3c-6.4,0-12.9,0-19.3,0c0-0.2,0-0.2,0-0.3c6.4,0,12.9,0,19.3,0C61.7,144.1,61.7,144.3,61.7,144.3z"
			/>
		<path class="st1" d="M62,121.3c-6.6,0-13.2,0-19.6,0v-0.2c6.6,0,13,0,19.6,0V121.3z"/>
		<path class="st1" d="M61.3,44c-6.4,0-12.7,0-19.1,0c0-0.2,0-0.2,0-0.3c6.4,0,12.7,0,19.1,0C61.3,43.8,61.3,44,61.3,44z"/>
		<path class="st1" d="M125.3,75.6c-3.6,0-7.3,0-10.9,0c0-0.2,0-0.2,0-0.3c3.6,0,7.3,0,10.9,0C125.3,75.5,125.3,75.6,125.3,75.6z"/>
		<path class="st1" d="M62,21.1c-6.6,0-13.2,0-19.8,0v-0.2c6.6,0,13.2,0,19.8,0V21.1z"/>
		<path class="st1" d="M49.7,151.4c-3.3,0-6.4,0-9.7,0c0-0.2,0-0.2,0-0.3c3.3,0,6.4,0,9.7,0C49.7,151.2,49.7,151.4,49.7,151.4z"/>
		<path class="st1" d="M103.2,103.4c6.4,0,12.9,0,19.5,0v0.2c-6.4,0-12.9,0-19.5,0V103.4z"/>
		<path class="st1" d="M116.4,89.4c3.1,0,6.4,0,9.6,0c0,0.2,0,0.2,0,0.3c-3.1,0-6.4,0-9.6,0C116.4,89.7,116.4,89.5,116.4,89.4z"/>
		<path class="st1" d="M43.1,5.4c-3,0-6.1,0-9,0c0-0.2,0-0.2,0-0.3c3,0,6.1,0,9,0C43.1,5.3,43.1,5.4,43.1,5.4z"/>
		<path class="st1" d="M103.4,105.3c6.3,0,12.5,0,18.8,0c0,0.2,0,0.2,0,0.3c-6.3,0-12.5,0-18.8,0
			C103.4,105.5,103.4,105.3,103.4,105.3z"/>
		<path class="st1" d="M61.2,142.5c-6.3,0-12.5,0-18.6,0v-0.2c6.3,0,12.5,0,18.6,0C61.2,142.3,61.2,142.3,61.2,142.5z"/>
		<path class="st1" d="M59.8,38.8c-5.9,0-11.8,0-17.7,0c0-0.2,0-0.2,0-0.3c5.9,0,11.8,0,17.7,0C59.8,38.6,59.8,38.6,59.8,38.8z"/>
		<path class="st1" d="M60.6,42.3c-6.1,0-12,0-18.1,0v-0.2c6.1,0,12,0,18.1,0C60.6,42.1,60.6,42.1,60.6,42.3z"/>
		<path class="st1" d="M42.4,138.7c5.9,0,11.8,0,17.7,0c0,0.2,0,0.2,0,0.3c-5.9,0-11.8,0-17.7,0C42.4,138.9,42.4,138.9,42.4,138.7z"
			/>
		<path class="st1" d="M119,84.1c3,0,5.7,0,8.7,0c0,0.2,0,0.3,0,0.3c-3,0-5.9,0-8.7,0C119,84.3,119,84.3,119,84.1z"/>
		<path class="st1" d="M42.2,49c6.1,0,12.2,0,18.2,0v0.2c-6.1,0-12.2,0-18.2,0V49z"/>
		<path class="st1" d="M53,152.8c5.6,0,11.1,0,16.9,0v0.2c-5.6,0-11.1,0-16.7,0C53,152.9,53,152.8,53,152.8z"/>
		<path class="st1" d="M42.4,26.1c5.9,0,11.8,0,17.7,0v0.2c-5.9,0-11.8,0-17.7,0C42.4,26.3,42.4,26.3,42.4,26.1z"/>
		<path class="st1" d="M60.1,126.5c-5.9,0-11.8,0-17.7,0v-0.2c5.9,0,11.8,0,17.7,0C60.1,126.5,60.1,126.5,60.1,126.5z"/>
		<path class="st1" d="M118.5,85.7c2.8,0,5.7,0,8.5,0c0,0.2,0,0.2,0,0.3c-2.8,0-5.7,0-8.5,0C118.5,86.1,118.5,85.9,118.5,85.7z"/>
		<path class="st1" d="M59.4,116.1c-5.6,0-11.3,0-16.9,0v-0.2c5.7,0,11.3,0,17,0C59.4,115.9,59.4,116.1,59.4,116.1z"/>
		<path class="st1" d="M107,153.1c-5.7,0-11.3,0-17,0c0-0.2,0-0.2,0-0.3c5.7,0,11.3,0,17,0C107,152.9,107,152.9,107,153.1z"/>
		<path class="st1" d="M59.4,36.9c-5.7,0-11.3,0-17,0c0-0.2,0-0.2,0-0.3c5.7,0,11.3,0,17,0C59.4,36.7,59.4,36.9,59.4,36.9z"/>
		<path class="st1" d="M59.4,31.7c-5.7,0-11.5,0-17,0v-0.2c5.7,0,11.3,0,17,0C59.4,31.5,59.4,31.5,59.4,31.7z"/>
		<path class="st1" d="M42.4,131.6c5.7,0,11.3,0,17,0v0.2c-5.7,0-11.3,0-17,0C42.4,131.7,42.4,131.7,42.4,131.6z"/>
		<path class="st1" d="M104.4,108.8c5.7,0,11.3,0,17,0v0.2c-5.7,0-11.3,0-17,0V108.8z"/>
		<path class="st1" d="M59.2,137.1c-5.6,0-11.3,0-16.9,0V137c5.7,0,11.5,0,17,0C59.4,137.1,59.2,137.1,59.2,137.1z"/>
		<path class="st1" d="M42.4,114c5.4,0,10.8,0,16.2,0c0,0.2,0,0.2,0,0.3c-5.4,0-10.8,0-16,0C42.4,114.2,42.4,114.2,42.4,114z"/>
		<path class="st1" d="M118.3,78.9c2.8,0,5.6,0,8.3,0c0,0.2,0,0.2,0,0.3c-2.8,0-5.6,0-8.3,0C118.3,79.1,118.3,78.9,118.3,78.9z"/>
		<path class="st1" d="M55.6,66.9c-4.5,0-9,0-13.6,0c0-0.2,0-0.2,0-0.3c4.5,0,9,0,13.6,0C55.6,66.8,55.6,66.8,55.6,66.9z"/>
		<path class="st1" d="M120.9,110.9c-5.6,0-10.9,0-16.5,0v-0.2c5.6,0,10.9,0,16.5,0C120.9,110.7,120.9,110.7,120.9,110.9z"/>
		<path class="st1" d="M124.7,72.2c-5.2,0-10.3,0-15.5,0c0-0.2,0-0.2,0-0.3c5.2,0,10.3,0,15.5,0C124.7,72,124.7,72.2,124.7,72.2z"/>
		<path class="st1" d="M118.7,39c-4,0-8.2,0-12.2,0c0-0.2,0-0.2,0-0.3c4,0,8.2,0,12.2,0C118.7,38.6,118.7,38.8,118.7,39z"/>
		<path class="st1" d="M124,70.4c-5.2,0-10.3,0-15.5,0c0-0.2,0-0.2,0-0.3c5.2,0,10.3,0,15.5,0C124,70.2,124,70.2,124,70.4z"/>
		<path class="st1" d="M103.9,59.5c5.2,0,10.4,0,15.5,0v0.2c-5.2,0-10.3,0-15.5,0C103.9,59.6,103.9,59.6,103.9,59.5z"/>
		<path class="st1" d="M118.7,42.3c-4.3,0-8.5,0-12.9,0c0-0.2,0-0.2,0-0.3c4.3,0,8.7,0,13,0C118.8,42.1,118.8,42.1,118.7,42.3z"/>
		<path class="st1" d="M42.4,54.3c5.2,0,10.4,0,15.6,0c0,0.2,0,0.2,0,0.3c-5.2,0-10.4,0-15.6,0C42.4,54.4,42.4,54.4,42.4,54.3z"/>
		<path class="st1" d="M124.6,93.2c-5.2,0-10.4,0-15.5,0c0-0.2,0-0.2,0-0.3c5.2,0,10.4,0,15.5,0C124.7,93,124.7,93.2,124.6,93.2z"/>
		<path class="st1" d="M57.3,110.7c-5,0-9.9,0-14.9,0c0-0.2,0-0.2,0-0.3c5,0,9.9,0,14.9,0C57.3,110.6,57.3,110.7,57.3,110.7z"/>
		<path class="st1" d="M94.2,15.5c5,0,10.1,0,15.1,0v0.2c-5,0-10.1,0-15.1,0C94.2,15.7,94.2,15.7,94.2,15.5z"/>
		<path class="st1" d="M120.4,49.2c-5,0-9.9,0-14.9,0V49c5,0,10.1,0,14.9,0V49.2z"/>
		<path class="st1" d="M105.5,115.8c4.9,0,9.7,0,14.4,0v0.2c-4.9,0-9.7,0-14.4,0C105.5,115.9,105.5,115.9,105.5,115.8z"/>
		<path class="st1" d="M56.8,59.8c-4.9,0-9.6,0-14.4,0v-0.2c4.9,0,9.6,0,14.4,0C56.8,59.6,56.8,59.6,56.8,59.8z"/>
		<path class="st1" d="M119.2,54.6c-4.7,0-9.6,0-14.2,0c0-0.2,0-0.2,0-0.3c4.9,0,9.7,0,14.4,0C119.4,54.4,119.2,54.4,119.2,54.6z"/>
		<path class="st1" d="M42.6,108.8c4.7,0,9.4,0,14.2,0v0.2c-4.9,0-9.6,0-14.4,0C42.4,109,42.6,108.8,42.6,108.8z"/>
		<path class="st1" d="M105.5,43.7c4.7,0,9.2,0,13.9,0c0,0.2,0,0.2,0,0.3c-4.7,0-9.2,0-13.9,0C105.5,43.8,105.5,43.8,105.5,43.7z"/>
		<path class="st1" d="M105.6,119.4c4.7,0,9.2,0,13.9,0c0,0.2,0,0.2,0,0.3c-4.7,0-9.2,0-13.9,0C105.6,119.6,105.6,119.4,105.6,119.4
			z"/>
		<path class="st1" d="M112.1,144.3c-4.2,0-8.2,0-12.3,0c0-0.2,0-0.2,0-0.3c4,0,8.2,0,12.2,0C112.1,144.1,112.1,144.3,112.1,144.3z"
			/>
		<path class="st1" d="M119.2,121.3c-4.5,0-9,0-13.7,0v-0.2c4.5,0,9.2,0,13.7,0C119.4,121.2,119.2,121.3,119.2,121.3z"/>
		<path class="st1" d="M109.6,149.5c-4.7,0-9.2,0-13.9,0c0-0.2,0-0.2,0-0.3c4.7,0,9.2,0,13.9,0C109.6,149.3,109.6,149.5,109.6,149.5
			z"/>
		<path class="st1" d="M52.3,15.5c4.7,0,9.4,0,14.1,0v0.2c-4.7,0-9.4,0-14.1,0C52.3,15.7,52.3,15.7,52.3,15.5z"/>
		<path class="st1" d="M97.6,147.6c4.3,0,8.7,0,13,0v0.2c-4.3,0-8.9,0-13.2,0C97.6,147.7,97.6,147.6,97.6,147.6z"/>
		<path class="st1" d="M56.3,105.5c-4.3,0-8.9,0-13.2,0v-0.2c4.3,0,8.9,0,13.2,0C56.1,105.3,56.1,105.5,56.3,105.5z"/>
		<path class="st1" d="M55.8,65c-4.5,0-8.9,0-13.4,0c0-0.2,0-0.2,0-0.3c4.5,0,8.9,0,13.4,0C55.8,64.9,55.8,65,55.8,65z"/>
		<path class="st1" d="M55.8,103.8c-4.3,0-8.7,0-13,0v-0.2c4.3,0,8.7,0,13,0C55.8,103.6,55.8,103.6,55.8,103.8z"/>
		<path class="st1" d="M42.4,98.2c4.3,0,8.5,0,12.9,0v0.2c-4.3,0-8.5,0-12.9,0C42.4,98.4,42.4,98.4,42.4,98.2z"/>
		<path class="st1" d="M99.6,20.9c4.3,0,8.5,0,12.9,0v0.2c-4.3,0-8.5,0-12.9,0V20.9z"/>
		<path class="st1" d="M64.6,149.5c-4.2,0-8.2,0-12.3,0v-0.2c4.2,0,8.2,0,12.3,0C64.8,149.3,64.6,149.5,64.6,149.5z"/>
		<path class="st1" d="M42.4,93c4.2,0,8.3,0,12.5,0v0.2c-4.2,0-8.3,0-12.5,0C42.4,93.2,42.4,93,42.4,93z"/>
		<path class="st1" d="M101.3,142.2c3.8,0,7.8,0,11.6,0v0.2c-4,0-7.8,0-11.8,0C101.3,142.3,101.3,142.3,101.3,142.2z"/>
		<path class="st1" d="M47.8,10.6c-3.8,0-7.6,0-11.5,0v-0.2c3.8,0,7.8,0,11.6,0C47.8,10.5,47.8,10.5,47.8,10.6z"/>
		<path d="M106.5,78.6c-0.5,0.2-1,0.5-1.6,0.7c-9,0.7-16.3,5.2-22.2,11.8c-1,1.2-1.7,2.6-2.4,3.6C74,83.8,64.1,78.9,51.6,78.2
			c11.6-0.9,22.4-3.3,28.3-15.5C86.5,72.3,95.9,76.5,106.5,78.6C106.7,78.6,106.5,78.6,106.5,78.6z M63.2,78.9c7.1,3.1,13,6.6,17,13
			c4.7-6.8,11.5-10.4,19.1-13.4C91.9,76,86,72,81.1,66.2C77.1,73.4,71.1,76.8,63.2,78.9z"/>
		<path d="M69.7,92.3c-3.6-1.7-7.3-3.8-11.1-5C54,85.9,49.2,85,44.5,84c-5.7-1.2-10.9-3.8-15.6-7.3c-0.5-0.3-1-0.5-1.6-0.7
			c0.2-0.2,0.5-0.5,0.7-0.7c2.6,1.4,5.2,3,7.6,4.3c5.7,3.3,12.5,3.6,18.8,5.2c4.2,1,8.2,2.8,12,4.5c1.4,0.5,2.4,1.7,3.6,2.6
			C69.8,92.1,69.8,92.1,69.7,92.3z"/>
		<path d="M58.4,76.2c7.5-2.6,14.8-5.6,19.6-12.3C74,71.8,66.7,74.8,58.4,76.2z"/>
		<path d="M80.6,51.5c2.1,3.1,4.2,6.3,6.1,9.2C83.9,59.6,80.8,55,80.6,51.5z"/>
		<path d="M81.5,147.4c3.3-5.6,8.7-8,14.6-9c6.9-1.2,13.9-1.7,21-2.3c12.5-0.9,23.8-4.5,30.6-15.8c5.7-9.4,7.5-19.6,2.3-30.1
			c-1.2-2.3-2.8-4.3-4-6.9c0.7,0.5,1.2,1.2,1.9,1.9c6.4,7.5,7.3,16.2,5.2,25.2c-3.5,16.2-16,25-31.6,26.6c-6.4,0.7-13,0.9-19.5,1.7
			C94.3,139.6,87,141.5,81.5,147.4z"/>
		<path d="M70.5,127.9c-2.6-1.4-3.6-3.5-3.3-6.4C68.3,123.6,69.5,125.7,70.5,127.9z"/>
		<path d="M135.9,43.7c-10.4-10.4-25.5-12.2-40.3-4.2c2.3-4,10.8-6.9,18.8-6.1C122.7,34.5,131,35.7,135.9,43.7z"/>
		<path d="M136,37.2c6.6,4.3,8.3,15.8,3.8,21.9c-3.5,4.5-10.1,5.7-14.9,2.3c1.4,0.2,2.6,0.3,3.6,0.5c6.8,1.2,12-2.8,12.5-9.7
			c0.3-4.7-0.5-9-3.6-12.9C136.9,38.8,136.4,38.1,136,37.2z"/>
		<path d="M88.6,32.9c-10.3-3.6-12.7-3-21.2,6.6c1-5.2,4.5-7.6,9-9C80.8,29.2,85.1,29.6,88.6,32.9z"/>
		<path d="M23.5,99.1c-6.3,8.7-3.6,16.5,2.4,24.2c-5.4-2.4-8-10.9-6.9-17.5C19.5,102.9,20.1,100.1,23.5,99.1z"/>
		<path d="M27.8,107.1c3.3,1.4,6.3,1.4,8.7-1.6c2.4-3,0.2-5.9-0.5-9.2c3.6,3,3.1,8.5,1.2,10.6C34.4,109.7,30.7,110,27.8,107.1z"/>
		<g>
			<g>
				<path class="st2" d="M28.5,8.4c0,0,2.6-3.5,6.8-4.3s8.3,0.3,11.1,3.1c3,2.8,4.5,6.1,4.5,6.1l2.8-2.3c0,0,2.6-3.1,8.2-6.3
					c3.3-1.6,5.6-3,10.1-3.8c4.5-0.9,6.8-1,12-0.7c5.2,0.5,9.7,1.7,12.9,3.6c3.3,1.9,3.5,1.2,11.5,8.7l5.2,8.2l2.3,5l-9.4,0.2
					l-6.6-1l-1-3l-1.7-2.6l-3.1-2.4l-3.6-2.3l-4.9-1.2l-3-1.2l-2.4-0.7l-5.2,0.7l-5,2.4L66,18.1L62.5,23l-1,3.3L61.2,32l-0.7,4.7
					l0.7,3.5l1.6,3.5l0.7,3.3l-3,4.7L58,58.8l-0.9,7.3l-1,3.3l-5.9,0.5L46,69.4l-2.6-0.5l-1.9-1.4l-0.3-9.6L41.3,44v-4.9l0.2-3.8
					L41.3,28l-0.2-7.1l-0.9-3.6l-1-2.6l-1.9-2.3l-2.3-1.9l-4.9-1.2L28.5,8.4z"/>
				<path class="st2" d="M41.7,87.8l13.7,0.5l1,5.2l0.9,7.6l1.6,9.6l1.6,5l3.3,4.5l-1.6,4.5l-1.4,4.5l0.3,6.9l0.5,5.6l2.4,5.4
					l2.8,3.3l4,2.6l2.3,0.9l2.8,0.3h3.3l2.1,0.2L86,154l4.3-1.9l3-1.7l2.3-2.1l2.3-2.1l1.6-2.6l1.4-2.1l5.2-0.3l7.6-0.2h1.4
					l-2.4,6.8l-5.2,7.1l-4.7,4.7l-6.9,4l-6.3,1.6L82,166l-7.5-0.2l-5.6-1l-4.3-1.6l-4-2.6l-3-1.9l-3.1-2.8l-3-3.1l-3.1,4l-2.8,3.8
					l-3.8,2.4l-4.3,0.2l-3.6-1.2l-3.8-2.8l-1.7-1.2c0,0,6.1-1.2,8.7-3.3l3-5.4l1.4-4.7l0.2-9.4l-0.2-10.9l0.3-15.6l-0.2-8.3
					l-0.2-6.8L41.7,87.8z"/>
				<polygon class="st2" points="104.8,125.3 111.9,126.5 117.8,126.4 119.9,125.8 121.4,117 123.7,105.3 125.4,97 126.5,91.8 
					127.7,88.1 128.7,85.2 128.4,81.4 126.5,74.8 125.1,69.7 124.4,64.9 123.5,62.9 121.3,60.5 120.1,57.2 120.2,55 121.3,52.2 
					122.1,51 121.1,45.6 120.4,42.3 119.9,38.6 119.4,37.8 112.1,37.1 104.8,38.1 104.4,40 104.6,42.4 104.6,46.6 104.2,51.3 
					103.7,55.6 102.5,60.2 101.1,65.2 99.9,68.5 102,68.9 105.8,69.4 108.1,70.9 108.6,73.9 110.3,75.6 112.6,76.5 115.7,77.2 
					117.3,79.1 118.3,82.4 118.7,84.5 117.4,87.3 115.2,88.8 110.1,89.5 108.4,90 108.4,92.8 107.4,95.3 105.5,97.3 100.1,97.7 
					101.6,102.4 103,107.6 103.7,111.8 104.2,115.8 104.8,119.8 104.8,122.2 				"/>
			</g>
		</g>
	</g>
</g>
</svg>
