<?xml version="1.0" encoding="utf-8"?>
<!-- Generator: Adobe Illustrator 27.0.1, SVG Export Plug-In . SVG Version: 6.00 Build 0)  -->
<svg version="1.1" id="Layer_1" xmlns="http://www.w3.org/2000/svg" xmlns:xlink="http://www.w3.org/1999/xlink" x="0px" y="0px"
	 viewBox="0 0 168 168" style="enable-background:new 0 0 168 168;" xml:space="preserve">
<style type="text/css">
	.st0{fill:#FFEC00;}
	.st1{fill:#165A69;}
	.st2{fill:#FFFFFF;}
	.st3{fill:#CE0000;}
</style>
<g>
	<path class="st0" d="M147.5,168.4H20.2C9.1,168.4,0,159.3,0,148.1V20.9C0,9.7,9.1,0.6,20.2,0.6h127.3c11.2,0,20.2,9.1,20.2,20.2
		v127.3C167.7,159.3,158.7,168.4,147.5,168.4z"/>
	<g>
		<path d="M65.5,125.5c-3.8,7.9-9.9,6.6-14.7,1.4c3-0.1,5.4-1,6.8-3.7c1-2.1,1.3-4.3,1.3-6.7c-4-0.6-7.7-1.7-10.9-4.1
			c-5-3.7-7.5-10.6-6-16.5c1.5-5.8,8-9.2,13.2-6.8c1.4,0.6,2.5,1.9,3.8,2.9c0-1.8,0-3.7,0-5.6c0-0.3-0.6-0.7-1.1-0.8
			c-4.6-1.9-8.2-4.9-10.8-9.2C42,67.9,46.6,55.7,57,52.9c2.2-0.6,2.2-0.6,2-2.9c-0.1-1-0.2-2-0.5-3c-0.7-2.8-2.7-4.4-5.6-4.6
			c-0.6-0.1-1.3-0.3-2-0.5c4.6-5.5,9.7-4.9,14.2,1.6c1.1-0.9,2.1-1.8,3.2-2.7c9.8-7.7,27.6-5.6,33.7,8.2c1,2.2,2.1,3.5,4.7,3.8
			c3.6,0.5,6.8,2.2,9.4,4.9c3.4,3.4,4.5,9.5,2.2,13.5c-1.7,3-5.3,4.5-8.6,3.6c-0.5-0.1-0.9-0.3-1.4-0.4c-0.1,0.2-0.1,0.3-0.1,0.3
			c0.1,2.2,1.2,3.1,3.4,3.7c8,1.9,14.3,8.9,14.7,16.2c0.5,10.2-5,19.5-16.7,22.2c-1.7,0.4-3.4,0.6-5.1,0.7c-1,0.1-1.5,0.4-1.9,1.4
			c-1.6,4.1-3.9,7.7-7.6,10.3c-7.4,5.2-19.6,5.7-27.8-1.9C66.7,126.5,66.2,126.1,65.5,125.5z M96.9,81.6L96.9,81.6
			c0.2-0.6,0.4-1.2,0.6-1.9c0.4-1.7-0.4-2.9-2.2-3c-0.6,0-1.3,0.3-1.9,0.3c-0.3,0-0.8,0-1-0.2c-0.2-0.1-0.2-0.6-0.1-0.9
			s0.3-0.6,0.4-0.9c-7.5-3.7-9.5-7.3-11-13.1c-0.2,0.6-0.3,1.1-0.4,1.5c-1,3.9-2.4,7.5-5.8,9.9c-5.4,3.8-11.3,4.2-17.4,2
			c-4-1.4-6.4-5-6.5-8.8c0-4,2-7,6.1-8.7c0.4-0.2,0.7-0.4,1.4-0.7c-2.6,0-5.6,2-6.9,4.5c-2.5,4.7-1.4,8.8,2,12.5
			c-0.7-0.4-1.2-0.8-1.7-1.3c-3.7-4-3.5-13,4.3-16.2c2.2-0.9,2.2-1,1.8-3.5c-0.4,0-0.8-0.1-1.2,0c-7.9,1.5-13.7,10.6-11.7,18.4
			c1.9,7.4,9,13.1,17.1,14.1c4.5,0.5,8.8,2,12.6,4.7c3.1,2.2,5.2,5.2,6.4,9.1c1.9-4.5,4.5-8,8.3-10.5s8.1-3.1,12.5-3.5
			c-2.8-0.6-5.4-0.1-8,0.7C89,87.9,85,91.6,82.2,97c0.1-1.7,0.8-3.1,2.4-4.9c4.8-5.7,11.1-7.9,18.9-7.8c-0.5-1.3-0.7-2.6-1.4-3.1
			c-0.8-0.5-2.2-0.2-3.3-0.2C98.2,81.3,97.6,81.5,96.9,81.6z M82.1,123.2c2-3.7,5.8-5.3,9.9-5.9c4.2-0.6,8.4-0.9,12.6-1.2
			c6.6-0.6,12.4-2.9,16.4-8.5c5.4-7.5,6.7-19.7-4.4-26.4c-2.3-1.4-4.8-2.4-7.5-2.8c0,2.8,2.2,5,1.4,7.9c0.4,0.3,0.9,0.7,1.4,1.1
			c0.4,0.4,0.8,0.8,1.2,1.2c-0.1,0-0.1,0.1-0.2,0.1c-0.9-0.6-1.8-1.1-2.7-1.7c-0.1,0.1-0.2,0.3-0.3,0.4c0.1,0.1,0.3,0.3,0.4,0.3
			c7.8,4.1,7.4,15.3,0.4,20.2c-4,2.8-8.5,2.6-13,1.6c-3.4-0.7-6.4-2.3-8.8-4.9c-1.1,4.8-2.9,6.8-6.2,7c-2.1,0.1-4.1-0.2-5.5-1.8
			c-1.2-1.5-1.9-3.4-2.9-5.1c-2.3,2.4-3.2,5.6-3,9.2c0.1,1.2,0.3,2,1.8,2.3c1.4,0.2,2.7,0.9,4,1.5c0.3,0.1,0.6,0.5,1,0.9
			c-2.2-0.7-4.1-1.4-6-2c-0.1,0.2-0.1,0.3-0.2,0.5c1.8,0.7,3.8,1.2,5.5,2.2C79.2,120.2,80.5,121.7,82.1,123.2z M112,69.7
			c0-0.2-0.1-0.4-0.1-0.6c0.4-2.7-1.7-4.5-4.3-3.7c-1.3,0.4-2.1,1.2-2.4,2.5c-0.3,1.7,0.3,3.2,1.7,4.3c3,2.4,7.9,1.5,10-2
			c1.8-3.1,1.7-6.3,0.4-9.5c-1.8-4.1-5.3-6.3-9.5-7.2c-4.8-1.1-9.8-1.7-14.7-2.6c-4.6-0.8-8.6-2.5-11.1-6.7
			c-0.1-0.1-0.2-0.1-0.4-0.2c-1.8,3.3-4.6,5.3-8.1,6.2c-1,0.3-1.5,0.7-1.6,1.7c-0.1,1.3-0.5,2.5-0.5,3.8c0,0.7,0.5,1.4,0.8,2.1
			c0,0.1,0,0.2,0,0.3c-0.3,0-0.5,0-1,0.1c1.4,1.1,2.5,2,3.8,3c0.7-4.2,3.2-6.4,7.2-6.3c3.9,0.1,6.3,2.3,6.8,6.5
			c3.8-3.7,8.3-5.1,13.3-4.4c3.7,0.5,7.2,1.4,10,4.1C114.8,63.6,114.7,67.7,112,69.7z M76.3,101.4c0.1,0.7,0.2,1.2,0.2,1.6
			c0,0.6-0.2,1.1-0.2,1.7c-0.1,3.7,2.1,6.2,5.6,6.2c3.6,0.1,6.2-2.4,6.2-6c0-1-0.1-2-0.1-3c1.8,2.8,4,5,7.6,6.1
			c-0.3-3-0.4-5.8-0.9-8.4c-0.5-2.7-1.5-5.3-2.2-7.8c3.7,0.8,5.8-0.7,4.9-3.9c-8.5,2.2-13,8.1-15.3,16.4c-0.3-8.9-5.4-13.5-13.4-16
			c0.2,1.8,0.2,3.3,0.5,4.8c0.6,3.2,1.3,6.3,2.1,9.5c0.3,1,1.1,1.8,1.9,2.9C74.2,103.9,75.1,102.8,76.3,101.4z M88.9,64.1
			c-0.1,0-0.3-0.1-0.4-0.1c0-0.7-0.1-1.5-0.1-2.2c-0.1-2.7-1.4-4.6-3.8-5.3c-4.2-1.3-8.3,1.7-8.3,6.1c0,0.6,0,1.1,0,1.7
			c-0.1,0-0.3,0.1-0.4,0.1c-0.9-1.8-1.9-3.5-4.3-4.3c0.8,1.5,1.5,2.7,2.1,3.8c-3.4,3.2-3.8,7.4-4.5,12.1c1.8-0.8,3.3-1.2,4.7-2
			c4.3-2.7,6.1-7,7.1-11.7c0.2-0.9,0.4-1.8,0.6-2.7c0.2-0.1,0.5-0.2,0.7-0.3c0.9,7,3.6,12.5,10.6,14.9C94.7,71.3,96,62,95,59.3
			C92.4,60.1,90.6,62,88.9,64.1z M58.8,114.8c-3.2-0.8-6.4-1.3-9.1-3.3c3,0.8,6,1.7,9.1,2.5c0.1-0.8,0.2-1.3,0.2-1.8
			c-0.1-3.4,0.6-2.7-2.7-3.2c-6.2-0.8-10.2-7.4-7.9-13.2c0.3-0.7,1-1.3,1.5-2c0.3,0.8,0.2,1.4,0.2,1.9c0,2.7,2.7,4.7,5.3,3.8
			c3.1-1,4.2-4.4,2.4-7.4c-1.9-3.2-6-4.2-9.7-2.4c-4.3,2.1-5.8,5.6-5.7,10.2C42.6,109.6,50.7,114.9,58.8,114.8z M105.4,109
			c5.2-0.3,9.8-5.4,10.1-10.9c0.2-3.5-1.8-8.8-6.1-9.5C108.1,95.4,106.8,102.1,105.4,109z M58.9,59.4c-3,0.2-5.7,3.9-5.9,7.4
			c-0.2,3.6,2.6,7.6,5.9,7.9C58.9,69.6,58.9,64.5,58.9,59.4z M49.4,97.5c-1.7,6.2,3.5,12.2,9.4,11c0.1-1,0.2-2,0.2-3c0-2,0-4,0-6.1
			C54.5,102.1,52.3,101.7,49.4,97.5z M112.8,67.5c0.8-1.4,0.8-3.2-0.1-4.7c-1.7-2.6-4.5-3.3-7.4-4.1c0.5,2.2,0.9,4.2,1.3,6.2
			C110.3,64.3,111.3,64.8,112.8,67.5z M72.3,118.3c1.9,4.7,5.3,7,9,6.3C79.9,120.2,76.1,119.6,72.3,118.3z M92.8,50.3
			c-1.6-3.7-5.7-6.2-9.6-5.9C85.2,48.4,88.8,49.4,92.8,50.3z M92.3,118.8c-4,0.3-8.2,3-8.8,5.8C87.3,124,90.3,122.2,92.3,118.8z
			 M80.7,44.4c-3.6-0.1-7,2.3-8,5.6C76.1,49.1,78.8,47.4,80.7,44.4z M67.8,126.3c0,0.1,0,0.2,0,0.2c9.2,0,18.4,0,27.5,0
			c0-0.1,0-0.2,0-0.2C86.2,126.3,77,126.3,67.8,126.3z M68.5,41.2c0,0.1,0,0.1,0.1,0.2c8.8,0,17.6,0,26.4,0c0-0.1,0-0.1,0-0.2
			C86.2,41.2,77.3,41.2,68.5,41.2z M94,40.5c0-0.1,0-0.1,0-0.2c-8,0-16,0-24,0c0,0.1,0,0.1,0,0.2C77.9,40.5,85.9,40.5,94,40.5z
			 M72.4,129.3c0,0.1,0,0.1,0,0.2c6.2,0,12.4,0,18.7,0c0-0.1,0-0.1,0-0.2C84.9,129.3,78.7,129.3,72.4,129.3z M71.7,39.3
			c0,0.1,0,0.2,0,0.3c6.8,0,13.7,0,20.5,0c0-0.1,0-0.2,0-0.3C85.4,39.3,78.5,39.3,71.7,39.3z M67.6,42.3c0,0.1,0,0.1,0,0.2
			c9.5,0,19,0,28.5,0c0-0.1,0-0.1,0-0.2C86.6,42.3,77.1,42.3,67.6,42.3z M59.2,46.3c0,0.1,0,0.1,0,0.2c4.6,0,9.1,0,13.7,0
			c0-0.1,0-0.1,0-0.2C68.3,46.3,63.8,46.3,59.2,46.3z M72.2,47.5c0-0.1,0-0.1,0-0.2c-4.2,0-8.5,0-12.7,0c0,0.1,0,0.1,0,0.2
			C63.7,47.5,67.9,47.5,72.2,47.5z M69.4,127.4L69.4,127.4c8.2,0.1,16.3,0.1,24.5,0.1v-0.1C85.7,127.4,77.6,127.4,69.4,127.4z
			 M97.2,43.4c0-0.1,0-0.1,0-0.2c-4.1,0-8.3,0-12.4,0c0,0.1,0,0.1,0,0.2C88.9,43.4,93,43.4,97.2,43.4z M71.8,120.4
			c0-0.1,0-0.1,0-0.2c-4,0-8,0-12,0c0,0.1,0,0.1,0,0.2C63.8,120.4,67.8,120.4,71.8,120.4z M74.6,130.3c0,0.1,0,0.1,0,0.2
			c4.6,0,9.2,0,13.8,0c0-0.1,0-0.1,0-0.2C83.8,130.3,79.2,130.3,74.6,130.3z M59.8,62.5c0,0.1,0,0.1,0,0.2c3.9,0,7.9,0,11.8,0
			c0-0.1,0-0.1,0-0.2C67.7,62.5,63.7,62.5,59.8,62.5z M94.5,94.9c0,0.1,0,0.1,0,0.2c3.9,0,7.9,0,11.8,0c0-0.1,0-0.1,0-0.2
			C102.4,94.9,98.5,94.9,94.5,94.9z M59.8,49.3c0,0.1,0,0.1,0,0.2c3.8,0,7.6,0,11.3,0c0-0.1,0-0.1,0-0.2
			C67.4,49.3,63.6,49.3,59.8,49.3z M94.8,72.6c0,0.1,0,0.1,0,0.2c3.7,0,7.5,0,11.2,0c0-0.1,0-0.1,0-0.2
			C102.3,72.6,98.6,72.6,94.8,72.6z M66.3,43.3c0,0.1,0,0.1,0,0.2c3.8,0,7.7,0,11.5,0c0-0.1,0-0.1,0-0.2
			C73.9,43.3,70.1,43.3,66.3,43.3z M94.1,93.9c0,0.1,0,0.1,0,0.2c4.1,0,8.3,0,12.4,0c0-0.1,0-0.1,0-0.2
			C102.4,93.9,98.2,93.9,94.1,93.9z M70.9,107.3c0-0.1,0-0.1,0-0.2c-3.7,0-7.4,0-11,0c0,0.1,0,0.1,0,0.2
			C63.5,107.3,67.2,107.3,70.9,107.3z M59.8,63.5c0,0.1,0,0.1,0,0.2c3.8,0,7.6,0,11.4,0c0-0.1,0-0.1,0-0.2
			C67.4,63.5,63.6,63.5,59.8,63.5z M59.8,50.3c0,0.1,0,0.1,0,0.2c3.6,0,7.2,0,10.9,0c0-0.1,0-0.1,0-0.2C67,50.3,63.4,50.3,59.8,50.3
			z M70.7,128.4v0.1c7.3,0,14.7,0,22,0v-0.1C85.4,128.4,78,128.4,70.7,128.4z M59.9,117.2c0,0.1,0,0.1,0,0.2c3.6,0,7.1,0,10.7,0
			c0-0.1,0-0.1,0-0.2C67,117.2,63.4,117.2,59.9,117.2z M70.6,104.3c0-0.1,0-0.1,0-0.2c-3.6,0-7.2,0-10.8,0c0,0.1,0,0.1,0,0.2
			C63.5,104.3,67,104.3,70.6,104.3z M70.3,59.7c0-0.1,0-0.1,0-0.2c-3.5,0-7,0-10.5,0c0,0.1,0,0.1,0,0.2
			C63.3,59.7,66.8,59.7,70.3,59.7z M106.9,75.9c0-0.1,0-0.1,0-0.2c-3.5,0-7.1,0-10.6,0c0,0.1,0,0.1,0,0.2
			C99.9,75.9,103.4,75.9,106.9,75.9z M70.3,108.2c0-0.1,0-0.1,0-0.2c-3.5,0-7,0-10.5,0c0,0.1,0,0.1,0,0.2
			C63.3,108.2,66.8,108.2,70.3,108.2z M95.3,97.9c0,0.1,0,0.2,0,0.2c3.5,0,7,0,10.5,0c0-0.1,0-0.2,0-0.2
			C102.3,97.9,98.8,97.9,95.3,97.9z M70,65.8c0-0.1,0-0.1,0-0.2c-3.4,0-6.8,0-10.2,0c0,0.1,0,0.1,0,0.2C63.2,65.8,66.6,65.8,70,65.8
			z M70,53.6c0-0.1,0-0.1,0-0.2c-3.4,0-6.8,0-10.2,0c0,0.1,0,0.1,0,0.2C63.2,53.6,66.6,53.6,70,53.6z M59.8,56.4c0,0.1,0,0.1,0,0.2
			c3.4,0,6.8,0,10.2,0c0-0.1,0-0.1,0-0.2C66.6,56.4,63.2,56.4,59.8,56.4z M59.8,114.1c0,0.1,0,0.1,0,0.2c3.4,0,6.8,0,10.2,0
			c0-0.1,0-0.1,0-0.2C66.6,114.1,63.2,114.1,59.8,114.1z M94.9,71.6c0,0.1,0,0.1,0,0.2c3.4,0,6.8,0,10.2,0c0-0.1,0-0.1,0-0.2
			C101.7,71.6,98.3,71.6,94.9,71.6z M69.9,111.3c0-0.1,0-0.1,0-0.2c-3.4,0-6.7,0-10.1,0c0,0.1,0,0.1,0,0.2
			C63.2,111.3,66.6,111.3,69.9,111.3z M59.9,52.4c0,0.1,0,0.1,0,0.2c3.4,0,6.9,0,10.3,0c0-0.1,0-0.1,0-0.2
			C66.8,52.4,63.3,52.4,59.9,52.4z M59.9,113.2c0,0.1,0,0.1,0,0.2c3.4,0,6.7,0,10.1,0c0-0.1,0-0.1,0-0.2
			C66.6,113.2,63.2,113.2,59.9,113.2z M74,38.2c0,0.1,0,0.1,0,0.2c5.3,0,10.6,0,15.9,0c0-0.1,0-0.1,0-0.2
			C84.6,38.2,79.3,38.2,74,38.2z M59.9,55.5c0,0.1,0,0.2,0,0.2c3.4,0,6.7,0,10.1,0c0-0.1,0-0.2,0-0.2C66.6,55.5,63.2,55.5,59.9,55.5
			z M59.9,110.1c0,0.1,0,0.1,0,0.2c3.4,0,6.7,0,10.1,0c0-0.1,0-0.1,0-0.2C66.6,110.1,63.2,110.1,59.9,110.1z M97.1,91.8
			c0,0.1,0,0.1,0,0.2c3.3,0,6.6,0,9.9,0c0-0.1,0-0.1,0-0.2C103.7,91.8,100.4,91.8,97.1,91.8z M98,44.5c0-0.1,0-0.1,0-0.2
			c-3.3,0-6.6,0-9.8,0c0,0.1,0,0.1,0,0.2C91.5,44.5,94.7,44.5,98,44.5z M105.4,101.2c0-0.1,0-0.1,0-0.2c-3.2,0-6.4,0-9.6,0
			c0,0.1,0,0.1,0,0.2C99,101.2,102.2,101.2,105.4,101.2z M59.8,66.5c0,0.1,0,0.1,0,0.2c3.2,0,6.4,0,9.6,0c0-0.1,0-0.1,0-0.2
			C66.2,66.5,63,66.5,59.8,66.5z M59.8,101c0,0.1,0,0.2,0,0.2c3.1,0,6.2,0,9.3,0c0-0.1,0-0.2,0-0.2C66,101,62.9,101,59.8,101z
			 M107.2,91.1c0-0.1,0-0.1,0-0.2c-3.1,0-6.2,0-9.3,0c0,0.1,0,0.1,0,0.2C101,91.1,104.1,91.1,107.2,91.1z M75.2,44.5
			c0-0.1,0-0.1,0-0.2c-3.2,0-6.4,0-9.5,0c0,0.1,0,0.1,0,0.2C68.8,44.5,72,44.5,75.2,44.5z M86.5,37.5c0-0.1,0-0.2,0-0.2
			c-3.3,0-6.6,0-9.9,0c0,0.1,0,0.2,0,0.2C79.9,37.5,83.2,37.5,86.5,37.5z M96.1,65.6c0,0.1,0,0.2,0,0.2c3,0,6.1,0,9.1,0
			c0-0.1,0-0.2,0-0.2C102.1,65.6,99.1,65.6,96.1,65.6z M107.6,78.9c0-0.1,0-0.1,0-0.2c-3,0-6,0-9,0c0,0.1,0,0.1,0,0.2
			C101.6,78.9,104.6,78.9,107.6,78.9z M104.8,66.8c0-0.1,0-0.1,0-0.2c-3,0-5.9,0-8.9,0c0,0.1,0,0.1,0,0.2
			C98.9,66.8,101.8,66.8,104.8,66.8z M98.4,88.8c0,0.1,0,0.1,0,0.2c3.1,0,6.2,0,9.3,0c0-0.1,0-0.1,0-0.2
			C104.7,88.8,101.5,88.8,98.4,88.8z M89.2,123.3c0,0.1,0,0.1,0,0.2c3,0,5.9,0,8.9,0c0-0.1,0-0.1,0-0.2
			C95.1,123.3,92.1,123.3,89.2,123.3z M59.8,68.6c0,0.1,0,0.1,0,0.2c3,0,6,0,8.9,0c0-0.1,0-0.1,0-0.2C65.8,68.6,62.8,68.6,59.8,68.6
			z M104.8,104.2c0-0.1,0-0.1,0-0.2c-2.9,0-5.7,0-8.6,0c0,0.1,0,0.1,0,0.2C99,104.2,101.9,104.2,104.8,104.2z M104.2,69.8
			c0-0.1,0-0.1,0-0.2c-2.9,0-5.8,0-8.7,0c0,0.1,0,0.1,0,0.2C98.4,69.8,101.3,69.8,104.2,69.8z M68.5,69.8c0-0.1,0-0.1,0-0.2
			c-2.9,0-5.8,0-8.7,0c0,0.1,0,0.1,0,0.2C62.7,69.8,65.6,69.8,68.5,69.8z M95.6,68.6c0,0.1,0,0.1,0,0.2c2.9,0,5.7,0,8.6,0
			c0-0.1,0-0.1,0-0.2C101.3,68.6,98.5,68.6,95.6,68.6z M68.2,98.2c0-0.1,0-0.1,0-0.2c-2.8,0-5.6,0-8.4,0c0,0.1,0,0.1,0,0.2
			C62.6,98.2,65.4,98.2,68.2,98.2z M65.7,123.3c0,0.1,0,0.1,0,0.2c2.9,0,5.7,0,8.6,0c0-0.1,0-0.1,0-0.2
			C71.4,123.3,68.5,123.3,65.7,123.3z M96.1,63.5c0,0.1,0,0.1,0,0.2c2.9,0,5.7,0,8.6,0c0-0.1,0-0.1,0-0.2
			C101.9,63.5,99,63.5,96.1,63.5z M104.6,62.7c0-0.1,0-0.2,0-0.2c-2.8,0-5.6,0-8.4,0c0,0.1,0,0.2,0,0.2
			C99,62.7,101.8,62.7,104.6,62.7z M99.3,46.6c0-0.1,0-0.2,0-0.2c-2.8,0-5.5,0-8.3,0c0,0.1,0,0.2,0,0.2
			C93.8,46.6,96.6,46.6,99.3,46.6z M61.7,40.5c0-0.1,0-0.1,0-0.2c-2.7,0-5.5,0-8.2,0c0,0.1,0,0.1,0,0.2C56.2,40.5,59,40.5,61.7,40.5
			z M59.8,72.6c0,0.1,0,0.1,0,0.2c2.7,0,5.4,0,8,0c0-0.1,0-0.1,0-0.2C65.2,72.6,62.5,72.6,59.8,72.6z M59.8,71.7c0,0.1,0,0.1,0,0.2
			c2.8,0,5.5,0,8.3,0c0-0.1,0-0.1,0-0.2C65.4,71.7,62.6,71.7,59.8,71.7z M96.2,107.1c0,0.1,0,0.1,0,0.2c2.7,0,5.3,0,8,0
			c0-0.1,0-0.1,0-0.2C101.5,107.1,98.8,107.1,96.2,107.1z M53.6,41.2c0,0.1,0,0.1,0,0.2c3,0,6.1,0,9.1,0c0-0.1,0-0.1,0-0.2
			C59.6,41.2,56.6,41.2,53.6,41.2z M99.9,47.5c0-0.1,0-0.1,0-0.2c-2.6,0-5.2,0-7.7,0c0,0.1,0,0.1,0,0.2
			C94.7,47.5,97.3,47.5,99.9,47.5z M103.9,108.2c0-0.1,0-0.1,0-0.2c-2.6,0-5.1,0-7.7,0c0,0.1,0,0.1,0,0.2
			C98.7,108.2,101.3,108.2,103.9,108.2z M96.2,59.4c0,0.1,0,0.1,0,0.2c2.6,0,5.2,0,7.8,0c0-0.1,0-0.1,0-0.2
			C101.3,59.4,98.8,59.4,96.2,59.4z M59.8,87.8c0,0.1,0,0.2,0,0.2c2.5,0,4.9,0,7.4,0c0-0.1,0-0.2,0-0.2
			C64.8,87.8,62.3,87.8,59.8,87.8z M60.1,94.9c0,0.1,0,0.1,0,0.2c2.5,0,5,0,7.5,0c0-0.1,0-0.1,0-0.2C65.1,94.9,62.6,94.9,60.1,94.9z
			 M80.7,125.6c0-0.1,0-0.1,0-0.2c-4.6,0-9.3,0-13.9,0c0,0.1,0,0.1,0,0.2C71.4,125.6,76,125.6,80.7,125.6z M59.9,91.8
			c0,0.1,0,0.1,0,0.2c2.5,0,4.9,0,7.4,0c0-0.1,0-0.1,0-0.2C64.8,91.8,62.3,91.8,59.9,91.8z M67.5,94.1c0-0.1,0-0.1,0-0.2
			c-2.6,0-5.2,0-7.7,0c0,0.1,0,0.1,0,0.2C62.4,94.1,65,94.1,67.5,94.1z M106.7,74.9L106.7,74.9c-4.3-0.1-8.5-0.1-12.8-0.1v0.1
			C98.2,74.9,102.5,74.9,106.7,74.9z M59.8,90.8c0,0.1,0,0.1,0,0.2c2.5,0,5,0,7.4,0c0-0.1,0-0.1,0-0.2
			C64.8,90.8,62.3,90.8,59.8,90.8z M59.8,88.8c0,0.1,0,0.1,0,0.2c2.5,0,4.9,0,7.4,0c0-0.1,0-0.1,0-0.2
			C64.7,88.8,62.3,88.8,59.8,88.8z M92.5,120.2c0,0.1,0,0.1,0,0.2c2.5,0,4.9,0,7.4,0c0-0.1,0-0.1,0-0.2
			C97.4,120.2,95,120.2,92.5,120.2z M93.4,49.4c0,0.1,0,0.1,0,0.2c2.5,0,5,0,7.5,0c0-0.1,0-0.1,0-0.2C98.4,49.4,95.9,49.4,93.4,49.4
			z M101.4,50.6c0-0.1,0-0.2,0-0.2c-2.5,0-4.9,0-7.4,0c0,0.1,0,0.2,0,0.2C96.4,50.6,98.9,50.6,101.4,50.6z M63,126.5
			c0-0.1,0-0.1,0-0.2c-2.4,0-4.7,0-7.1,0c0,0.1,0,0.1,0,0.2C58.3,126.5,60.6,126.5,63,126.5z M83.3,125.3c0,0.1,0,0.1,0,0.2
			c4.4,0,8.8,0,13.1,0c0-0.1,0-0.1,0-0.2C92,125.3,87.6,125.3,83.3,125.3z M63.9,43.5c0-0.1,0-0.2,0-0.2c-2.2,0-4.3,0-6.5,0
			c0,0.1,0,0.2,0,0.2C59.6,43.5,61.7,43.5,63.9,43.5z M96,102c0,0.1,0,0.1,0,0.2c3,0,6.1,0,9.1,0c0-0.1,0-0.1,0-0.2
			C102,102,99,102,96,102z M93.8,92.9L93.8,92.9c4.4,0.1,8.6,0.1,12.9,0.1v-0.1C102.4,92.9,98.1,92.9,93.8,92.9z M59.7,121.3
			L59.7,121.3c4.2,0.1,8.3,0.1,12.5,0.1v-0.1C68,121.3,63.9,121.3,59.7,121.3z M94.4,73.7c0,0.1,0,0.1,0,0.2c4,0,8,0,12.1,0
			c0-0.1,0-0.1,0-0.2C102.5,73.7,98.4,73.7,94.4,73.7z M61.4,75.6c0,0.1,0,0.1-0.1,0.2c2.1,0,4.1,0,6.2,0c0-0.1,0-0.1,0-0.2
			C65.5,75.6,63.4,75.6,61.4,75.6z M58.3,44.3c0,0.1,0,0.1,0,0.2c2,0,3.9,0,5.9,0c0-0.1,0-0.1,0-0.2C62.2,44.3,60.2,44.3,58.3,44.3z
			 M60,105C60,105,60,105.1,60,105c4,0.1,7.8,0.1,11.7,0.1V105C67.8,105,63.9,105,60,105z M71.1,119.4c0-0.1,0-0.1,0-0.2
			c-3.7,0-7.4,0-11.1,0c0,0.1,0,0.1,0,0.2C63.7,119.4,67.4,119.4,71.1,119.4z M71.3,106.2L71.3,106.2c-3.8-0.1-7.5-0.1-11.3-0.1v0.1
			C63.7,106.2,67.5,106.2,71.3,106.2z M70.9,61.7c0-0.1,0-0.1,0-0.2c-3.7,0-7.3,0-11,0c0,0.1,0,0.1,0,0.2
			C63.6,61.7,67.3,61.7,70.9,61.7z M107.7,79.9c0-0.1,0-0.1,0-0.2c-2.1,0-4.2,0-6.3,0c0,0.1,0,0.1,0,0.2
			C103.5,79.9,105.6,79.9,107.7,79.9z M71.3,48.5L71.3,48.5c-3.8-0.1-7.6-0.1-11.4-0.1v0.1C63.7,48.5,67.5,48.5,71.3,48.5z
			 M64.2,123.5c0-0.1,0-0.1,0-0.2c-1.9,0-3.7,0-5.6,0c0,0.1,0,0.1,0,0.2C60.5,123.5,62.4,123.5,64.2,123.5z M95,95.9L95,95.9
			c3.7,0.1,7.4,0.1,11.2,0.1v-0.1C102.5,95.9,98.7,95.9,95,95.9z M102.6,87.8c0,0.1,0,0.1,0,0.2c1.8,0,3.7,0,5.5,0
			c0-0.1,0-0.1,0-0.2C106.3,87.8,104.4,87.8,102.6,87.8z M60.4,39.5c0-0.1,0-0.1,0-0.2c-1.7,0-3.5,0-5.2,0c0,0.1,0,0.1,0,0.2
			C57,39.5,58.7,39.5,60.4,39.5z M95.1,97c0,0.1,0,0.1,0,0.2c3.6,0,7.2,0,10.8,0c0-0.1,0-0.1,0-0.2C102.3,97,98.7,97,95.1,97z
			 M70.8,118.4L70.8,118.4c-3.6-0.1-7.2-0.1-10.7-0.1v0.1C63.6,118.4,67.2,118.4,70.8,118.4z M70,58.7c0-0.1,0-0.1,0-0.2
			c-3.4,0-6.8,0-10.2,0c0,0.1,0,0.1,0,0.2C63.2,58.7,66.6,58.7,70,58.7z M70.5,60.7L70.5,60.7c-3.5-0.1-6.9-0.1-10.4-0.1v0.1
			C63.5,60.7,67,60.7,70.5,60.7z M60,116.2c0,0.1,0,0.1,0,0.2c3.4,0,6.8,0,10.2,0c0-0.1,0-0.1,0-0.2C66.9,116.2,63.4,116.2,60,116.2
			z M104.1,84.8c0,0.1,0,0.2,0,0.2c1.7,0,3.4,0,5,0c0-0.1,0-0.2,0-0.2C107.4,84.8,105.8,84.8,104.1,84.8z M59.9,64.6L59.9,64.6
			c3.5,0.1,7,0.1,10.5,0.1v-0.1C67,64.6,63.5,64.6,59.9,64.6z M66.1,124.3L66.1,124.3c3.2,0.1,6.4,0.1,9.6,0.1v-0.1
			C72.5,124.3,69.3,124.3,66.1,124.3z M60,51.4L60,51.4c3.4,0.1,6.8,0.1,10.2,0.1v-0.1C66.8,51.4,63.4,51.4,60,51.4z M70.2,109.2
			L70.2,109.2c-3.4-0.1-6.8-0.1-10.2-0.1v0.1C63.4,109.2,66.8,109.2,70.2,109.2z M103.8,85.7c0,0.1,0,0.1,0,0.2c1.6,0,3.3,0,4.9,0
			c0-0.1,0-0.1,0-0.2C107.1,85.7,105.5,85.7,103.8,85.7z M69.8,103.2C69.8,103.2,69.8,103.1,69.8,103.2c-3.2-0.1-6.4-0.1-9.7-0.1
			v0.1C63.3,103.2,66.5,103.2,69.8,103.2z M97.2,124.5c0-0.1,0-0.1,0-0.2c-3.3,0-6.5,0-9.8,0c0,0.1,0,0.1,0,0.2
			C90.7,124.5,93.9,124.5,97.2,124.5z M69.8,57.6c0-0.1,0-0.1,0-0.2c-3.3,0-6.5,0-9.8,0c0,0.1,0,0.1,0,0.2
			C63.3,57.6,66.6,57.6,69.8,57.6z M69.8,54.6L69.8,54.6c-3.3-0.1-6.5-0.1-9.8-0.1v0.1C63.2,54.6,66.5,54.6,69.8,54.6z M60,112.1
			L60,112.1c3.3,0.1,6.5,0.1,9.8,0.1v-0.1C66.5,112.1,63.2,112.1,60,112.1z M95.7,99L95.7,99c3.3,0.1,6.5,0.1,9.8,0.1V99
			C102.2,99,99,99,95.7,99z M69.7,115.3L69.7,115.3c-3.2-0.1-6.5-0.1-9.7-0.1v0.1C63.2,115.3,66.5,115.3,69.7,115.3z M60,102
			c0,0.1,0,0.1,0.1,0.2c3.1,0,6.2,0,9.2,0c0-0.1,0-0.1,0-0.2C66.2,102,63.1,102,60,102z M103.7,81.8c0,0.1,0,0.1,0,0.2
			c1.6,0,3.2,0,4.8,0c0-0.1,0-0.1,0-0.2C106.9,81.8,105.3,81.8,103.7,81.8z M67.6,74.9c0-0.1,0-0.1,0-0.2c-2.6,0-5.2,0-7.8,0
			c0,0.1,0,0.1,0,0.2C62.5,74.9,65,74.9,67.6,74.9z M105.2,100.2L105.2,100.2c-3.2-0.1-6.3-0.1-9.5-0.1v0.1
			C98.9,100.2,102,100.2,105.2,100.2z M107.4,77.9c0-0.1,0-0.1,0-0.2c-3,0-5.9,0-8.9,0c0,0.1,0,0.1,0,0.2
			C101.5,77.9,104.5,77.9,107.4,77.9z M62.2,127.5L62.2,127.5c-3.1-0.1-6.1-0.1-9.2-0.1v0.1C56,127.5,59.1,127.5,62.2,127.5z
			 M103.9,58.8c0-0.1,0-0.1,0-0.2c-2.3,0-4.7,0-7,0c0,0.1,0,0.1,0,0.2C99.2,58.8,101.5,58.8,103.9,58.8z M107,76.9
			c0-0.1,0-0.1,0-0.2c-3,0-5.9,0-8.9,0c0,0.1,0,0.1,0,0.2C101.1,76.9,104.1,76.9,107,76.9z M95.4,70.6L95.4,70.6
			c3,0.1,5.9,0.1,8.9,0.1v-0.1C101.4,70.6,98.4,70.6,95.4,70.6z M103.9,60.7c0-0.1,0.1-0.1,0.1-0.2c-2.5,0-5,0-7.5,0
			c0,0.1,0,0.1,0,0.2C99,60.7,101.5,60.7,103.9,60.7z M60,67.6c0,0.1,0,0.1,0,0.2c3,0,6,0,9,0c0-0.1,0-0.1,0-0.2
			C66,67.6,63,67.6,60,67.6z M107.3,90c0-0.1,0-0.1,0-0.2c-3,0-6,0-8.9,0c0,0.1,0,0.1,0,0.2C101.4,90,104.4,90,107.3,90z
			 M68.6,100.1c0-0.1,0-0.1,0-0.2c-2.9,0-5.7,0-8.6,0c0,0.1,0,0.1,0,0.2C62.8,100.1,65.7,100.1,68.6,100.1z M89.8,45.3L89.8,45.3
			c2.9,0.1,5.8,0.1,8.7,0.1v-0.1C95.7,45.3,92.8,45.3,89.8,45.3z M104.9,64.7L104.9,64.7c-2.9-0.1-5.8-0.1-8.6-0.1v0.1
			C99.1,64.7,102,64.7,104.9,64.7z M96.3,103L96.3,103c2.8,0.1,5.6,0.1,8.3,0.1V103C101.8,103,99,103,96.3,103z M68.3,70.8
			L68.3,70.8c-2.8-0.1-5.5-0.1-8.3-0.1v0.1C62.8,70.8,65.5,70.8,68.3,70.8z M104.2,67.8c0-0.1,0.1-0.1,0.1-0.2c-2.8,0-5.6,0-8.3,0
			c0,0.1,0,0.1,0,0.2C98.7,67.8,101.4,67.8,104.2,67.8z M60.1,99L60.1,99c2.7,0.1,5.4,0.1,8.2,0.1V99C65.6,99,62.8,99,60.1,99z
			 M96.3,61.5c0,0.1,0,0.1,0,0.2c2.7,0,5.3,0,8,0c0-0.1,0-0.1,0-0.2C101.6,61.5,99,61.5,96.3,61.5z M96.4,105.1c0,0.1,0,0.1,0,0.2
			c2.7,0,5.3,0,8,0c0-0.1,0-0.1,0-0.2C101.7,105.1,99,105.1,96.4,105.1z M100.1,119.4c0-0.1,0-0.1,0-0.2c-2.3,0-4.7,0-7,0
			c0,0.1,0,0.1,0,0.2C95.4,119.4,97.8,119.4,100.1,119.4z M104.2,106.2C104.2,106.2,104.2,106.1,104.2,106.2
			c-2.5-0.1-5.2-0.1-7.8-0.1v0.1C99,106.2,101.6,106.2,104.2,106.2z M98.7,122.4c0-0.1,0-0.1,0-0.2c-2.7,0-5.3,0-8,0
			c0,0.1,0,0.1,0,0.2C93.4,122.4,96.1,122.4,98.7,122.4z M65.7,45.3L65.7,45.3c2.7,0.1,5.4,0.1,8.1,0.1v-0.1
			C71.1,45.3,68.4,45.3,65.7,45.3z M91.8,121.3C91.8,121.3,91.8,121.4,91.8,121.3c2.4,0.1,5,0.1,7.5,0.1v-0.1
			C96.8,121.3,94.3,121.3,91.8,121.3z M68,97.1L68,97.1C65.5,97,62.9,97,60.4,97v0.1C62.9,97.1,65.4,97.1,68,97.1z M67.7,73.8
			c0-0.1,0-0.1,0-0.2c-2.6,0-5.1,0-7.7,0c0,0.1,0,0.1,0,0.2C62.6,73.8,65.1,73.8,67.7,73.8z M67.7,96.1L67.7,96.1
			c-2.5-0.1-5-0.1-7.5-0.1v0.1C62.7,96.1,65.2,96.1,67.7,96.1z M60,92.9L60,92.9c2.5,0.1,4.9,0.1,7.4,0.1v-0.1
			C64.9,92.9,62.4,92.9,60,92.9z M56,129.3c0,0.1,0,0.1,0,0.2c1.3,0,2.6,0,3.8,0c0-0.1,0-0.1,0-0.2C58.5,129.3,57.3,129.3,56,129.3z
			 M92.9,48.4L92.9,48.4c2.5,0.1,4.9,0.1,7.4,0.1v-0.1C97.9,48.4,95.4,48.4,92.9,48.4z M72.8,122.4L72.8,122.4
			c-2.4-0.1-4.7-0.1-7.1-0.1v0.1C68.1,122.4,70.5,122.4,72.8,122.4z M54.2,128.4L54.2,128.4c2.4,0.1,4.7,0.1,7.1,0.1v-0.1
			C58.9,128.4,56.5,128.4,54.2,128.4z M60,89.9L60,89.9c2.4,0.1,4.8,0.1,7.2,0.1v-0.1C64.7,89.9,62.3,89.9,60,89.9z M93.9,118.2
			L93.9,118.2c2.3,0.1,4.5,0.1,6.8,0.1v-0.1C98.4,118.2,96.1,118.2,93.9,118.2z M63.1,42.5C63.1,42.5,63.1,42.4,63.1,42.5
			c-2.1-0.1-4.4-0.1-6.6-0.1v0.1C58.7,42.5,60.9,42.5,63.1,42.5z"/>
		<path class="st1" d="M96.9,81.6c0.6-0.1,1.3-0.3,1.9-0.3c1.1,0,2.5-0.3,3.3,0.2c0.7,0.4,0.9,1.8,1.4,3.1
			c-7.8-0.1-14.1,2.1-18.9,7.8c-1.6,1.8-2.3,3.2-2.4,4.9c2.8-5.4,6.8-9.1,12.4-10.9c2.6-0.8,5.3-1.3,8-0.7c-4.4,0.4-8.7,1-12.5,3.5
			s-6.4,6-8.3,10.5c-1.2-4-3.3-6.9-6.4-9.1c-3.8-2.7-8-4.1-12.6-4.7c-8.1-1-15.2-6.6-17.1-14.1c-2-7.8,3.8-17,11.7-18.4
			c0.4-0.1,0.8,0,1.2,0c0.5,2.5,0.4,2.6-1.8,3.5C49.2,60,49,68.9,52.7,73c0.5,0.5,1,0.9,1.7,1.3c-3.4-3.8-4.6-7.9-2-12.5
			c1.4-2.5,4.4-4.5,6.9-4.5c-0.7,0.4-1,0.6-1.4,0.7c-4.1,1.8-6.2,4.7-6.1,8.7c0,3.8,2.5,7.3,6.5,8.8c6.1,2.2,12,1.8,17.4-2
			c3.4-2.4,4.8-6.1,5.8-9.9c0.1-0.4,0.2-0.9,0.4-1.5c1.5,5.8,3.5,9.4,11,13.1c-0.2,0.3-0.4,0.6-0.4,0.9c-0.1,0.3-0.1,0.8,0.1,0.9
			c0.2,0.2,0.7,0.2,1,0.2c0.6-0.1,1.3-0.4,1.9-0.3c1.8,0,2.6,1.3,2.2,3C97.4,80.3,97.1,80.9,96.9,81.6c-6.1-1.1-11.5-3.6-15.2-9.1
			c-3.4,7-9.6,8.4-16.3,8.9c7.2,0.4,12.9,3.2,16.5,9.5c0.4-0.6,0.8-1.5,1.4-2.1c3.4-3.8,7.5-6.4,12.8-6.8
			C96.3,81.9,96.6,81.7,96.9,81.6z M75.7,89.5c0-0.1,0.1-0.1,0.1-0.2c-0.7-0.5-1.3-1.2-2.1-1.5c-2.3-1-4.6-2-6.9-2.6
			c-3.6-1-7.4-1.2-10.8-3c-1.5-0.8-3-1.7-4.4-2.5c-0.1,0.1-0.3,0.3-0.4,0.4c0.3,0.1,0.7,0.2,0.9,0.4c2.7,2,5.7,3.5,9,4.2
			c2.7,0.6,5.5,1,8.1,1.9C71.5,87.3,73.6,88.5,75.7,89.5z M69.2,80.2c4.8-0.8,9-2.5,11.3-7.1C77.7,77,73.5,78.6,69.2,80.2z M82,66
			c0,2.1,1.9,4.8,3.5,5.3C84.4,69.5,83.2,67.8,82,66z"/>
		<path class="st1" d="M82.1,123.2c-1.6-1.4-3-3-4.6-4c-1.7-1-3.7-1.5-5.5-2.2c0.1-0.2,0.1-0.3,0.2-0.5c1.9,0.6,3.8,1.3,6,2
			c-0.4-0.4-0.6-0.7-1-0.9c-1.3-0.6-2.6-1.2-4-1.5c-1.5-0.3-1.8-1-1.8-2.3c-0.2-3.6,0.7-6.7,3-9.2c0.9,1.7,1.7,3.6,2.9,5.1
			c1.3,1.6,3.4,1.9,5.5,1.8c3.3-0.2,5.1-2.2,6.2-7c2.5,2.6,5.4,4.2,8.8,4.9c4.5,0.9,9,1.2,13-1.6c6.9-4.8,7.4-16-0.4-20.2
			c-0.2-0.1-0.3-0.2-0.4-0.3c0.1-0.1,0.2-0.3,0.3-0.4c0.9,0.6,1.8,1.1,2.7,1.7c0.1,0,0.1-0.1,0.2-0.1c-0.4-0.4-0.8-0.8-1.2-1.2
			c-0.5-0.4-0.9-0.7-1.4-1.1c0.7-2.9-1.4-5.1-1.4-7.9c2.7,0.4,5.2,1.4,7.5,2.8c11.1,6.7,9.7,18.9,4.4,26.4c-4,5.6-9.7,7.9-16.4,8.5
			c-4.2,0.4-8.4,0.6-12.6,1.2C87.9,117.9,84.1,119.4,82.1,123.2z M82.5,121.2c3.2-3.5,7.4-4.6,11.8-5.1c3.7-0.4,7.5-0.6,11.2-1
			c9-0.9,16.2-6.1,18.2-15.3c1.1-5.2,0.7-10.2-3-14.5c-0.3-0.4-0.7-0.7-1.1-1.1c0.6,1.5,1.6,2.7,2.3,4c3,6,2,11.8-1.3,17.3
			c-4,6.5-10.4,8.7-17.6,9.1c-4,0.3-8.1,0.6-12.1,1.3C87.5,116.6,84.4,118,82.5,121.2z M76.2,110c-0.6-1.2-1.3-2.5-1.9-3.7
			C74.1,108,74.7,109.2,76.2,110z"/>
		<path class="st1" d="M112,69.7c2.7-2,2.8-6.1,0.3-8.6c-2.8-2.7-6.3-3.6-10-4.1c-5-0.7-9.4,0.7-13.3,4.4c-0.5-4.2-2.9-6.4-6.8-6.5
			c-4-0.1-6.5,2.2-7.2,6.3c-1.3-1-2.4-1.9-3.8-3c0.6,0,0.8-0.1,1-0.1c0-0.1,0-0.2,0-0.3c-0.3-0.7-0.8-1.4-0.8-2.1
			c0-1.3,0.3-2.5,0.5-3.8c0.1-1,0.6-1.5,1.6-1.7c3.5-0.9,6.3-2.9,8.1-6.2c0.2,0.1,0.4,0.1,0.4,0.2c2.5,4.3,6.5,5.9,11.1,6.7
			c4.9,0.9,9.8,1.5,14.7,2.6c4.1,0.9,7.7,3.1,9.5,7.2c1.4,3.2,1.5,6.4-0.4,9.5c-2,3.5-6.9,4.4-10,2c-1.4-1.1-2-2.6-1.7-4.3
			c0.2-1.3,1.1-2.1,2.4-2.5c2.6-0.8,4.7,0.9,4.3,3.7C111.9,69.3,112,69.5,112,69.7z M113.8,61.5c-2.8-4.6-7.6-5.4-12.4-5.9
			c-4.6-0.5-9.5,1.2-10.8,3.5C99.1,54.6,107.8,55.5,113.8,61.5z M113.9,57.8c0.3,0.4,0.5,0.8,0.8,1.2c1.8,2.2,2.3,4.7,2.1,7.4
			c-0.3,4-3.3,6.3-7.2,5.6c-0.6-0.1-1.3-0.2-2.1-0.3c2.7,2,6.6,1.3,8.6-1.3C118.7,67,117.6,60.3,113.9,57.8z M86.6,55.3
			c-2-1.9-4.5-2.1-7-1.4c-2.5,0.7-4.5,2.1-5.2,5.2C79.3,53.7,80.7,53.3,86.6,55.3z"/>
		<path class="st1" d="M58.8,114.8c-8.1,0-16.2-5.2-16.5-14.8c-0.1-4.6,1.4-8.1,5.7-10.2c3.7-1.8,7.8-0.8,9.7,2.4
			c1.8,3,0.7,6.3-2.4,7.4c-2.6,0.9-5.3-1.1-5.3-3.8c0-0.5,0.1-1.1-0.2-1.9c-0.5,0.7-1.2,1.2-1.5,2c-2.3,5.8,1.7,12.4,7.9,13.2
			c3.3,0.4,2.6-0.2,2.7,3.2c0,0.5-0.1,1-0.2,1.8c-3.2-0.9-6.1-1.7-9.1-2.5C52.4,113.5,55.6,114.1,58.8,114.8z M49.1,93.4
			c-1.9,0.6-2.3,2.2-2.6,3.9c-0.6,3.8,0.9,8.7,4,10.1C47,102.9,45.5,98.5,49.1,93.4z M51.6,98c1.7,1.6,3.8,1.5,5.3-0.1
			c1.1-1.2,1.4-4.4-0.7-6.1c0.4,1.8,1.7,3.5,0.3,5.3C55.2,98.8,53.5,98.8,51.6,98z"/>
		<path class="st2" d="M67.8,126.3c9.2,0,18.4,0,27.5,0c0,0.1,0,0.2,0,0.2c-9.2,0-18.4,0-27.5,0C67.8,126.5,67.8,126.4,67.8,126.3z"
			/>
		<path class="st2" d="M68.5,41.2c8.8,0,17.6,0,26.4,0c0,0.1,0,0.1,0,0.2c-8.8,0-17.6,0-26.4,0C68.6,41.4,68.6,41.3,68.5,41.2z"/>
		<path class="st2" d="M94,40.5c-8,0-16,0-24,0c0-0.1,0-0.1,0-0.2c8,0,16,0,24,0C94,40.4,94,40.4,94,40.5z"/>
		<path class="st2" d="M71.7,39.3c6.8,0,13.7,0,20.5,0c0,0.1,0,0.2,0,0.3c-6.8,0-13.7,0-20.5,0C71.7,39.4,71.7,39.3,71.7,39.3z"/>
		<path class="st2" d="M67.6,42.3c9.5,0,19,0,28.5,0c0,0.1,0,0.1,0,0.2c-9.5,0-19,0-28.5,0C67.6,42.4,67.6,42.4,67.6,42.3z"/>
		<path class="st2" d="M59.2,46.3c4.6,0,9.1,0,13.7,0c0,0.1,0,0.1,0,0.2c-4.6,0-9.1,0-13.7,0C59.2,46.4,59.2,46.4,59.2,46.3z"/>
		<path class="st2" d="M72.2,47.5c-4.2,0-8.5,0-12.7,0c0-0.1,0-0.1,0-0.2c4.2,0,8.5,0,12.7,0C72.2,47.4,72.2,47.5,72.2,47.5z"/>
		<path class="st2" d="M97.2,43.4c-4.1,0-8.3,0-12.4,0c0-0.1,0-0.1,0-0.2c4.1,0,8.3,0,12.4,0C97.2,43.3,97.2,43.4,97.2,43.4z"/>
		<path class="st2" d="M71.8,120.4c-4,0-8,0-12,0c0-0.1,0-0.1,0-0.2c4,0,8,0,12,0C71.8,120.3,71.8,120.4,71.8,120.4z"/>
		<path class="st2" d="M59.8,62.5c3.9,0,7.9,0,11.8,0c0,0.1,0,0.1,0,0.2c-3.9,0-7.9,0-11.8,0C59.8,62.7,59.8,62.6,59.8,62.5z"/>
		<path class="st2" d="M94.5,94.9c3.9,0,7.9,0,11.8,0c0,0.1,0,0.1,0,0.2c-3.9,0-7.9,0-11.8,0C94.5,95,94.5,94.9,94.5,94.9z"/>
		<path class="st2" d="M71.1,49.3c0,0.1,0,0.1,0,0.2c-3.8,0-7.6,0-11.3,0c0-0.1,0-0.1,0-0.2"/>
		<path class="st2" d="M94.8,72.6c3.7,0,7.5,0,11.2,0c0,0.1,0,0.1,0,0.2c-3.7,0-7.5,0-11.2,0C94.8,72.7,94.8,72.7,94.8,72.6z"/>
		<path class="st2" d="M66.3,43.3c3.8,0,7.7,0,11.5,0c0,0.1,0,0.1,0,0.2c-3.8,0-7.7,0-11.5,0C66.3,43.4,66.3,43.3,66.3,43.3z"/>
		<path class="st2" d="M94.1,93.9c4.1,0,8.3,0,12.4,0c0,0.1,0,0.1,0,0.2c-4.1,0-8.3,0-12.4,0C94.1,94,94.1,94,94.1,93.9z"/>
		<path class="st2" d="M70.9,107.3c-3.7,0-7.4,0-11,0c0-0.1,0-0.1,0-0.2c3.7,0,7.4,0,11,0C70.9,107.1,70.9,107.2,70.9,107.3z"/>
		<path class="st2" d="M59.8,63.5c3.8,0,7.6,0,11.4,0c0,0.1,0,0.1,0,0.2c-3.8,0-7.6,0-11.4,0C59.8,63.6,59.8,63.6,59.8,63.5z"/>
		<path class="st2" d="M59.8,50.3c3.6,0,7.2,0,10.9,0c0,0.1,0,0.1,0,0.2c-3.6,0-7.2,0-10.9,0C59.8,50.4,59.8,50.4,59.8,50.3z"/>
		<path class="st2" d="M59.9,117.2c3.6,0,7.1,0,10.7,0c0,0.1,0,0.1,0,0.2c-3.6,0-7.1,0-10.7,0C59.9,117.3,59.9,117.2,59.9,117.2z"/>
		<path class="st2" d="M70.6,104.3c-3.6,0-7.2,0-10.8,0c0-0.1,0-0.1,0-0.2c3.6,0,7.2,0,10.8,0C70.6,104.1,70.6,104.2,70.6,104.3z"/>
		<path class="st2" d="M70.3,59.7c-3.5,0-7,0-10.5,0c0-0.1,0-0.1,0-0.2c3.5,0,7,0,10.5,0C70.3,59.6,70.3,59.7,70.3,59.7z"/>
		<path class="st2" d="M106.9,75.9c-3.5,0-7.1,0-10.6,0c0-0.1,0-0.1,0-0.2c3.5,0,7.1,0,10.6,0C106.9,75.7,106.9,75.8,106.9,75.9z"/>
		<path class="st2" d="M70.3,108.2c-3.5,0-7,0-10.5,0c0-0.1,0-0.1,0-0.2c3.5,0,7,0,10.5,0C70.3,108.1,70.3,108.2,70.3,108.2z"/>
		<path class="st2" d="M95.3,97.9c3.5,0,7,0,10.5,0c0,0.1,0,0.2,0,0.2c-3.5,0-7,0-10.5,0C95.2,98.1,95.2,98,95.3,97.9z"/>
		<path class="st2" d="M70,65.8c-3.4,0-6.8,0-10.2,0c0-0.1,0-0.1,0-0.2c3.4,0,6.8,0,10.2,0C70,65.7,70,65.8,70,65.8z"/>
		<path class="st2" d="M70,53.6c-3.4,0-6.8,0-10.2,0c0-0.1,0-0.1,0-0.2c3.4,0,6.8,0,10.2,0C70,53.5,70,53.6,70,53.6z"/>
		<path class="st2" d="M59.8,56.4c3.4,0,6.8,0,10.2,0c0,0.1,0,0.1,0,0.2c-3.4,0-6.8,0-10.2,0C59.8,56.5,59.8,56.5,59.8,56.4z"/>
		<path class="st2" d="M59.8,114.1c3.4,0,6.8,0,10.2,0c0,0.1,0,0.1,0,0.2c-3.4,0-6.8,0-10.2,0C59.8,114.3,59.8,114.2,59.8,114.1z"/>
		<path class="st2" d="M94.9,71.6c3.4,0,6.8,0,10.2,0c0,0.1,0,0.1,0,0.2c-3.4,0-6.8,0-10.2,0C94.9,71.8,94.9,71.7,94.9,71.6z"/>
		<path class="st2" d="M69.9,111.3c-3.4,0-6.7,0-10.1,0c0-0.1,0-0.1,0-0.2c3.4,0,6.7,0,10.1,0C69.9,111.2,69.9,111.2,69.9,111.3z"/>
		<path class="st2" d="M59.9,52.4c3.4,0,6.9,0,10.3,0c0,0.1,0,0.1,0,0.2c-3.4,0-6.9,0-10.3,0C59.9,52.5,59.9,52.5,59.9,52.4z"/>
		<path class="st2" d="M59.9,113.2c3.4,0,6.7,0,10.1,0c0,0.1,0,0.1,0,0.2c-3.4,0-6.7,0-10.1,0C59.9,113.3,59.9,113.2,59.9,113.2z"/>
		<path class="st2" d="M74,38.2c5.3,0,10.6,0,15.9,0c0,0.1,0,0.1,0,0.2c-5.3,0-10.6,0-15.9,0C74,38.3,74,38.3,74,38.2z"/>
		<path class="st2" d="M59.9,55.5c3.4,0,6.7,0,10.1,0c0,0.1,0,0.2,0,0.2c-3.4,0-6.7,0-10.1,0C59.8,55.6,59.8,55.5,59.9,55.5z"/>
		<path class="st2" d="M59.9,110.1c3.4,0,6.7,0,10.1,0c0,0.1,0,0.1,0,0.2c-3.4,0-6.7,0-10.1,0C59.9,110.3,59.9,110.2,59.9,110.1z"/>
		<path class="st2" d="M97.1,91.8c3.3,0,6.6,0,9.9,0c0,0.1,0,0.1,0,0.2c-3.3,0-6.6,0-9.9,0C97.1,92,97.1,91.9,97.1,91.8z"/>
		<path class="st2" d="M98,44.5c-3.3,0-6.6,0-9.8,0c0-0.1,0-0.1,0-0.2c3.3,0,6.6,0,9.8,0C98,44.3,98,44.4,98,44.5z"/>
		<path class="st2" d="M105.4,101.2c-3.2,0-6.4,0-9.6,0c0-0.1,0-0.1,0-0.2c3.2,0,6.4,0,9.6,0C105.4,101.1,105.4,101.1,105.4,101.2z"
			/>
		<path class="st2" d="M59.8,66.5c3.2,0,6.4,0,9.6,0c0,0.1,0,0.1,0,0.2c-3.2,0-6.4,0-9.6,0C59.8,66.7,59.8,66.6,59.8,66.5z"/>
		<path class="st2" d="M59.8,101c3.1,0,6.2,0,9.3,0c0,0.1,0,0.2,0,0.2c-3.1,0-6.2,0-9.3,0C59.8,101.1,59.8,101,59.8,101z"/>
		<path class="st2" d="M107.2,91.1c-3.1,0-6.2,0-9.3,0c0-0.1,0-0.1,0-0.2c3.1,0,6.2,0,9.3,0C107.2,91,107.2,91.1,107.2,91.1z"/>
		<path class="st2" d="M75.2,44.5c-3.2,0-6.4,0-9.5,0c0-0.1,0-0.1,0-0.2c3.2,0,6.4,0,9.5,0C75.2,44.4,75.2,44.4,75.2,44.5z"/>
		<path class="st2" d="M86.5,37.5c-3.3,0-6.6,0-9.9,0c0-0.1,0-0.2,0-0.2c3.3,0,6.6,0,9.9,0C86.5,37.4,86.5,37.4,86.5,37.5z"/>
		<path class="st2" d="M96.1,65.6c3,0,6.1,0,9.1,0c0,0.1,0,0.2,0,0.2c-3,0-6.1,0-9.1,0C96.1,65.7,96.1,65.6,96.1,65.6z"/>
		<path class="st2" d="M107.6,78.9c-3,0-6,0-9,0c0-0.1,0-0.1,0-0.2c3,0,6,0,9,0C107.6,78.8,107.6,78.9,107.6,78.9z"/>
		<path class="st2" d="M104.8,66.8c-3,0-5.9,0-8.9,0c0-0.1,0-0.1,0-0.2c3,0,5.9,0,8.9,0C104.8,66.6,104.8,66.7,104.8,66.8z"/>
		<path class="st2" d="M98.4,88.8c3.1,0,6.2,0,9.3,0c0,0.1,0,0.1,0,0.2c-3.1,0-6.2,0-9.3,0C98.4,88.9,98.4,88.9,98.4,88.8z"/>
		<path class="st2" d="M89.2,123.3c3,0,5.9,0,8.9,0c0,0.1,0,0.1,0,0.2c-3,0-5.9,0-8.9,0C89.2,123.4,89.2,123.3,89.2,123.3z"/>
		<path class="st2" d="M59.8,68.6c3,0,6,0,9,0c0,0.1,0,0.1,0,0.2c-3,0-6,0-8.9,0C59.8,68.7,59.8,68.7,59.8,68.6z"/>
		<path class="st2" d="M104.8,104.2c-2.9,0-5.8,0-8.6,0c0-0.1,0-0.1,0-0.2c2.9,0,5.7,0,8.6,0C104.8,104.1,104.8,104.2,104.8,104.2z"
			/>
		<path class="st2" d="M104.2,69.8c-2.9,0-5.8,0-8.7,0c0-0.1,0-0.1,0-0.2c2.9,0,5.8,0,8.7,0C104.2,69.7,104.2,69.8,104.2,69.8z"/>
		<path class="st2" d="M68.5,69.8c-2.9,0-5.8,0-8.6,0c0-0.1,0-0.1,0-0.2c2.9,0,5.8,0,8.7,0C68.5,69.7,68.5,69.8,68.5,69.8z"/>
		<path class="st2" d="M95.6,68.6c2.9,0,5.7,0,8.6,0c0,0.1,0,0.1,0,0.2c-2.9,0-5.7,0-8.6,0C95.6,68.7,95.6,68.7,95.6,68.6z"/>
		<path class="st2" d="M68.2,98.2c-2.8,0-5.6,0-8.4,0c0-0.1,0-0.1,0-0.2c2.8,0,5.6,0,8.4,0C68.2,98,68.2,98.1,68.2,98.2z"/>
		<path class="st2" d="M65.7,123.3c2.9,0,5.7,0,8.6,0c0,0.1,0,0.1,0,0.2c-2.9,0-5.7,0-8.6,0C65.7,123.4,65.7,123.4,65.7,123.3z"/>
		<path class="st2" d="M96.1,63.5c2.9,0,5.7,0,8.6,0c0,0.1,0,0.1,0,0.2c-2.9,0-5.7,0-8.6,0C96.1,63.6,96.1,63.6,96.1,63.5z"/>
		<path class="st2" d="M104.6,62.7c-2.8,0-5.6,0-8.4,0c0-0.1,0-0.2,0-0.2c2.8,0,5.6,0,8.4,0C104.6,62.6,104.6,62.7,104.6,62.7z"/>
		<path class="st2" d="M99.3,46.6c-2.8,0-5.5,0-8.3,0c0-0.1,0-0.2,0-0.2c2.8,0,5.5,0,8.3,0C99.3,46.4,99.3,46.5,99.3,46.6z"/>
		<path class="st2" d="M61.7,40.5c-2.7,0-5.5,0-8.2,0c0-0.1,0-0.1,0-0.2c2.7,0,5.5,0,8.2,0C61.7,40.4,61.7,40.4,61.7,40.5z"/>
		<path class="st2" d="M59.8,72.6c2.7,0,5.4,0,8.1,0c0,0.1,0,0.1,0,0.2c-2.7,0-5.4,0-8,0C59.8,72.7,59.8,72.7,59.8,72.6z"/>
		<path class="st2" d="M59.8,71.7c2.8,0,5.5,0,8.3,0c0,0.1,0,0.1,0,0.2c-2.8,0-5.5,0-8.3,0C59.8,71.8,59.8,71.7,59.8,71.7z"/>
		<path class="st2" d="M96.2,107.1c2.7,0,5.3,0,8,0c0,0.1,0,0.1,0,0.2c-2.7,0-5.3,0-8,0C96.2,107.2,96.2,107.1,96.2,107.1z"/>
		<path class="st2" d="M53.6,41.2c3,0,6.1,0,9.1,0c0,0.1,0,0.1,0,0.2c-3,0-6.1,0-9.1,0C53.6,41.3,53.6,41.3,53.6,41.2z"/>
		<path class="st2" d="M99.9,47.5c-2.6,0-5.2,0-7.8,0c0-0.1,0-0.1,0-0.2c2.6,0,5.2,0,7.7,0C99.9,47.4,99.9,47.5,99.9,47.5z"/>
		<path class="st2" d="M103.9,108.2c-2.6,0-5.1,0-7.7,0c0-0.1,0-0.1,0-0.2c2.6,0,5.1,0,7.7,0C103.9,108.1,103.9,108.2,103.9,108.2z"
			/>
		<path class="st2" d="M96.2,59.4c2.6,0,5.2,0,7.8,0c0,0.1,0,0.1,0,0.2c-2.6,0-5.2,0-7.8,0C96.2,59.6,96.2,59.5,96.2,59.4z"/>
		<path class="st2" d="M59.8,87.8c2.5,0,4.9,0,7.4,0c0,0.1,0,0.2,0,0.2c-2.5,0-4.9,0-7.4,0C59.8,87.9,59.8,87.9,59.8,87.8z"/>
		<path class="st2" d="M60.1,94.9c2.5,0,5,0,7.5,0c0,0.1,0,0.1,0,0.2c-2.5,0-5,0-7.5,0C60.1,95,60.1,94.9,60.1,94.9z"/>
		<path class="st2" d="M80.7,125.6c-4.6,0-9.2,0-13.8,0c0-0.1,0-0.1,0-0.2c4.6,0,9.3,0,13.9,0C80.7,125.5,80.7,125.5,80.7,125.6z"/>
		<path class="st2" d="M59.9,91.8c2.5,0,4.9,0,7.4,0c0,0.1,0,0.1,0,0.2c-2.5,0-4.9,0-7.4,0C59.9,91.9,59.9,91.9,59.9,91.8z"/>
		<path class="st2" d="M67.5,94.1c-2.6,0-5.2,0-7.7,0c0-0.1,0-0.1,0-0.2c2.6,0,5.2,0,7.7,0C67.5,94,67.5,94.1,67.5,94.1z"/>
		<path class="st2" d="M106.7,74.9c-4.3,0-8.5,0-12.8,0v-0.1C98.2,74.8,102.4,74.8,106.7,74.9C106.7,74.8,106.7,74.8,106.7,74.9z"/>
		<path class="st2" d="M59.8,90.8c2.5,0,5,0,7.4,0c0,0.1,0,0.1,0,0.2c-2.5,0-5,0-7.4,0C59.8,91,59.8,90.9,59.8,90.8z"/>
		<path class="st2" d="M59.8,88.8c2.4,0,4.9,0,7.3,0c0,0.1,0,0.1,0,0.2c-2.5,0-4.9,0-7.4,0C59.8,88.9,59.8,88.9,59.8,88.8z"/>
		<path class="st2" d="M92.5,120.2c2.5,0,4.9,0,7.4,0c0,0.1,0,0.1,0,0.2c-2.5,0-4.9,0-7.4,0C92.5,120.3,92.5,120.2,92.5,120.2z"/>
		<path class="st2" d="M93.4,49.4c2.5,0,5,0,7.5,0c0,0.1,0,0.1,0,0.2c-2.5,0-5,0-7.5,0C93.4,49.5,93.4,49.4,93.4,49.4z"/>
		<path class="st2" d="M101.4,50.6c-2.5,0-4.9,0-7.4,0c0-0.1,0-0.2,0-0.2c2.5,0,4.9,0,7.4,0C101.4,50.4,101.4,50.5,101.4,50.6z"/>
		<path class="st2" d="M63,126.5c-2.4,0-4.7,0-7.1,0c0-0.1,0-0.1,0-0.2c2.4,0,4.7,0,7.1,0C63,126.4,63,126.5,63,126.5z"/>
		<path class="st2" d="M83.3,125.3c4.4,0,8.7,0,13.1,0c0,0.1,0,0.1,0,0.2c-4.4,0-8.8,0-13.1,0C83.3,125.5,83.3,125.4,83.3,125.3z"/>
		<path class="st2" d="M63.9,43.5c-2.2,0-4.3,0-6.5,0c0-0.1,0-0.2,0-0.2c2.2,0,4.3,0,6.5,0C63.9,43.4,63.9,43.4,63.9,43.5z"/>
		<path class="st2" d="M96,102c3,0,6.1,0,9.1,0c0,0.1,0,0.1,0,0.2c-3,0-6.1,0-9.1,0C95.9,102.1,96,102,96,102z"/>
		<path class="st2" d="M93.8,92.9c4.3,0,8.6,0,12.9,0V93C102.4,93,98.2,93,93.8,92.9C93.9,93,93.9,92.9,93.8,92.9z"/>
		<path class="st2" d="M59.7,121.3c4.2,0,8.3,0,12.5,0v0.1C68,121.4,63.9,121.4,59.7,121.3C59.7,121.4,59.7,121.3,59.7,121.3z"/>
		<path class="st2" d="M94.4,73.7c4,0,8,0,12.1,0c0,0.1,0,0.1,0,0.2c-4,0-8,0-12.1,0C94.4,73.8,94.4,73.7,94.4,73.7z"/>
		<path class="st2" d="M61.4,75.6c2,0,4.1,0,6.1,0c0,0.1,0,0.1,0,0.2c-2.1,0-4.1,0-6.2,0C61.3,75.8,61.4,75.7,61.4,75.6z"/>
		<path class="st2" d="M58.3,44.3c2,0,3.9,0,5.9,0c0,0.1,0,0.1,0,0.2c-2,0-3.9,0-5.9,0C58.3,44.4,58.3,44.3,58.3,44.3z"/>
		<path class="st2" d="M60,105c3.9,0,7.8,0,11.6,0v0.1C67.7,105.1,63.9,105.1,60,105C60,105.1,60,105.1,60,105z"/>
		<path class="st2" d="M71.1,119.4c-3.7,0-7.4,0-11.1,0c0-0.1,0-0.1,0-0.2c3.7,0,7.4,0,11.1,0C71.1,119.3,71.1,119.4,71.1,119.4z"/>
		<path class="st2" d="M71.3,106.2c-3.8,0-7.6,0-11.3,0v-0.1C63.8,106.1,67.5,106.1,71.3,106.2L71.3,106.2z"/>
		<path class="st2" d="M70.9,61.7c-3.7,0-7.3,0-11,0c0-0.1,0-0.1,0-0.2c3.7,0,7.3,0,11,0C70.9,61.6,70.9,61.7,70.9,61.7z"/>
		<path class="st2" d="M107.7,79.9c-2.1,0-4.2,0-6.3,0c0-0.1,0-0.1,0-0.2c2.1,0,4.2,0,6.3,0C107.7,79.8,107.7,79.9,107.7,79.9z"/>
		<path class="st2" d="M71.3,48.5c-3.8,0-7.6,0-11.4,0v-0.1C63.7,48.4,67.5,48.4,71.3,48.5L71.3,48.5z"/>
		<path class="st2" d="M64.2,123.5c-1.9,0-3.7,0-5.6,0c0-0.1,0-0.1,0-0.2c1.9,0,3.7,0,5.6,0C64.2,123.4,64.2,123.5,64.2,123.5z"/>
		<path class="st2" d="M95,95.9c3.7,0,7.4,0,11.2,0V96C102.5,96,98.8,96,95,95.9L95,95.9z"/>
		<path class="st2" d="M102.6,87.8c1.8,0,3.7,0,5.5,0c0,0.1,0,0.1,0,0.2c-1.8,0-3.7,0-5.5,0C102.6,88,102.6,87.9,102.6,87.8z"/>
		<path class="st2" d="M60.4,39.5c-1.7,0-3.5,0-5.2,0c0-0.1,0-0.1,0-0.2c1.7,0,3.5,0,5.2,0C60.4,39.4,60.4,39.5,60.4,39.5z"/>
		<path class="st2" d="M95.1,97c3.6,0,7.2,0,10.8,0c0,0.1,0,0.1,0,0.2c-3.6,0-7.2,0-10.8,0C95.1,97.1,95.1,97,95.1,97z"/>
		<path class="st2" d="M70.8,118.4c-3.6,0-7.2,0-10.7,0v-0.1C63.7,118.3,67.3,118.3,70.8,118.4C70.8,118.3,70.8,118.3,70.8,118.4z"
			/>
		<path class="st2" d="M70,58.7c-3.4,0-6.8,0-10.2,0c0-0.1,0-0.1,0-0.2c3.4,0,6.8,0,10.2,0C70,58.6,70,58.6,70,58.7z"/>
		<path class="st2" d="M70.5,60.7c-3.5,0-6.9,0-10.4,0v-0.1C63.6,60.6,67,60.6,70.5,60.7C70.5,60.6,70.5,60.6,70.5,60.7z"/>
		<path class="st2" d="M60,116.2c3.4,0,6.8,0,10.2,0c0,0.1,0,0.1,0,0.2c-3.4,0-6.8,0-10.2,0C60,116.3,60,116.3,60,116.2z"/>
		<path class="st2" d="M104.1,84.8c1.7,0,3.3,0,5,0c0,0.1,0,0.2,0,0.2c-1.7,0-3.4,0-5,0C104.1,84.9,104.1,84.9,104.1,84.8z"/>
		<path class="st2" d="M59.9,64.6c3.5,0,7,0,10.5,0v0.1C66.9,64.7,63.4,64.7,59.9,64.6L59.9,64.6z"/>
		<path class="st2" d="M66.1,124.3c3.2,0,6.4,0,9.7,0v0.1C72.6,124.4,69.4,124.4,66.1,124.3C66.1,124.4,66.1,124.3,66.1,124.3z"/>
		<path class="st2" d="M60,51.4c3.4,0,6.8,0,10.2,0v0.1C66.8,51.5,63.4,51.5,60,51.4C60,51.5,60,51.5,60,51.4z"/>
		<path class="st2" d="M70.2,109.2c-3.4,0-6.8,0-10.2,0v-0.1C63.4,109.1,66.8,109.1,70.2,109.2C70.2,109.2,70.2,109.2,70.2,109.2z"
			/>
		<path class="st2" d="M103.8,85.7c1.6,0,3.3,0,4.9,0c0,0.1,0,0.1,0,0.2c-1.6,0-3.3,0-4.9,0C103.8,85.9,103.8,85.8,103.8,85.7z"/>
		<path class="st2" d="M69.8,103.2c-3.2,0-6.5,0-9.7,0v-0.1C63.4,103.1,66.6,103.1,69.8,103.2C69.8,103.1,69.8,103.2,69.8,103.2z"/>
		<path class="st2" d="M97.2,124.5c-3.3,0-6.5,0-9.8,0c0-0.1,0-0.1,0-0.2c3.3,0,6.5,0,9.8,0C97.2,124.4,97.2,124.4,97.2,124.5z"/>
		<path class="st2" d="M69.8,57.6c-3.3,0-6.5,0-9.8,0c0-0.1,0-0.1,0-0.2c3.3,0,6.5,0,9.8,0C69.8,57.5,69.8,57.6,69.8,57.6z"/>
		<path class="st2" d="M69.8,54.6c-3.3,0-6.6,0-9.8,0v-0.1C63.3,54.5,66.5,54.5,69.8,54.6C69.8,54.5,69.8,54.5,69.8,54.6z"/>
		<path class="st2" d="M60,112.1c3.3,0,6.5,0,9.8,0v0.1C66.5,112.2,63.3,112.2,60,112.1C60,112.2,60,112.2,60,112.1z"/>
		<path class="st2" d="M95.7,99c3.3,0,6.5,0,9.8,0v0.1C102.2,99.1,99,99.1,95.7,99L95.7,99z"/>
		<path class="st2" d="M69.7,115.3c-3.2,0-6.5,0-9.7,0v-0.1C63.3,115.2,66.6,115.2,69.7,115.3C69.8,115.3,69.7,115.3,69.7,115.3z"/>
		<path class="st2" d="M60,102c3.1,0,6.2,0,9.3,0c0,0.1,0,0.1,0,0.2c-3.1,0-6.2,0-9.2,0C60,102.1,60,102.1,60,102z"/>
		<path class="st2" d="M103.7,81.8c1.6,0,3.2,0,4.8,0c0,0.1,0,0.1,0,0.2c-1.6,0-3.2,0-4.8,0C103.7,81.9,103.7,81.8,103.7,81.8z"/>
		<path class="st2" d="M67.6,74.9c-2.6,0-5.2,0-7.8,0c0-0.1,0-0.1,0-0.2c2.6,0,5.2,0,7.8,0C67.6,74.8,67.6,74.8,67.6,74.9z"/>
		<path class="st2" d="M105.2,100.2c-3.2,0-6.3,0-9.5,0v-0.1C98.9,100.1,102,100.1,105.2,100.2C105.2,100.1,105.2,100.1,105.2,100.2
			z"/>
		<path class="st2" d="M107.4,77.9c-3,0-5.9,0-8.9,0c0-0.1,0-0.1,0-0.2c3,0,5.9,0,8.9,0C107.4,77.8,107.4,77.9,107.4,77.9z"/>
		<path class="st2" d="M103.9,58.8c-2.3,0-4.7,0-7,0c0-0.1,0-0.1,0-0.2c2.3,0,4.7,0,7,0C103.9,58.6,103.9,58.7,103.9,58.8z"/>
		<path class="st2" d="M107,76.9c-3,0-5.9,0-8.9,0c0-0.1,0-0.1,0-0.2c3,0,5.9,0,8.9,0C107,76.8,107,76.8,107,76.9z"/>
		<path class="st2" d="M95.4,70.6c3,0,6,0,8.9,0v0.1C101.3,70.7,98.4,70.7,95.4,70.6C95.4,70.7,95.4,70.7,95.4,70.6z"/>
		<path class="st2" d="M103.9,60.7c-2.5,0-4.9,0-7.4,0c0-0.1,0-0.1,0-0.2c2.5,0,5,0,7.5,0C104,60.6,104,60.6,103.9,60.7z"/>
		<path class="st2" d="M60,67.6c3,0,6,0,9,0c0,0.1,0,0.1,0,0.2c-3,0-6,0-9,0C60,67.7,60,67.7,60,67.6z"/>
		<path class="st2" d="M107.3,90c-3,0-6,0-8.9,0c0-0.1,0-0.1,0-0.2c3,0,6,0,8.9,0C107.4,89.9,107.4,90,107.3,90z"/>
		<path class="st2" d="M68.6,100.1c-2.9,0-5.7,0-8.6,0c0-0.1,0-0.1,0-0.2c2.9,0,5.7,0,8.6,0C68.6,100,68.6,100.1,68.6,100.1z"/>
		<path class="st2" d="M89.8,45.3c2.9,0,5.8,0,8.7,0v0.1C95.6,45.4,92.7,45.4,89.8,45.3C89.8,45.4,89.8,45.4,89.8,45.3z"/>
		<path class="st2" d="M104.9,64.7c-2.9,0-5.7,0-8.6,0v-0.1C99.2,64.6,102.1,64.6,104.9,64.7L104.9,64.7z"/>
		<path class="st2" d="M96.3,103c2.8,0,5.6,0,8.3,0v0.1C101.8,103.1,99,103.1,96.3,103C96.3,103.1,96.3,103.1,96.3,103z"/>
		<path class="st2" d="M68.3,70.8c-2.8,0-5.5,0-8.3,0v-0.1C62.8,70.7,65.5,70.7,68.3,70.8C68.3,70.7,68.3,70.7,68.3,70.8z"/>
		<path class="st2" d="M104.2,67.8c-2.7,0-5.5,0-8.2,0c0-0.1,0-0.1,0-0.2c2.8,0,5.6,0,8.3,0C104.3,67.7,104.2,67.7,104.2,67.8z"/>
		<path class="st2" d="M60.1,99c2.7,0,5.4,0,8.2,0v0.1c-2.8,0-5.5,0-8.3,0C60,99.1,60.1,99,60.1,99z"/>
		<path class="st2" d="M96.3,61.5c2.7,0,5.3,0,8,0c0,0.1,0,0.1,0,0.2c-2.7,0-5.3,0-8,0C96.3,61.6,96.3,61.6,96.3,61.5z"/>
		<path class="st2" d="M96.4,105.1c2.7,0,5.3,0,8,0c0,0.1,0,0.1,0,0.2c-2.7,0-5.3,0-8,0C96.4,105.2,96.4,105.1,96.4,105.1z"/>
		<path class="st2" d="M100.1,119.4c-2.4,0-4.7,0-7.1,0c0-0.1,0-0.1,0-0.2c2.3,0,4.7,0,7,0C100.1,119.3,100.1,119.4,100.1,119.4z"/>
		<path class="st2" d="M104.2,106.2c-2.6,0-5.2,0-7.9,0v-0.1C98.9,106.1,101.6,106.1,104.2,106.2
			C104.3,106.1,104.2,106.2,104.2,106.2z"/>
		<path class="st2" d="M98.7,122.4c-2.7,0-5.3,0-8,0c0-0.1,0-0.1,0-0.2c2.7,0,5.3,0,8,0C98.7,122.3,98.7,122.4,98.7,122.4z"/>
		<path class="st2" d="M65.7,45.3c2.7,0,5.4,0,8.1,0v0.1C71.1,45.4,68.4,45.4,65.7,45.3C65.7,45.4,65.7,45.4,65.7,45.3z"/>
		<path class="st2" d="M91.8,121.3c2.5,0,5,0,7.5,0v0.1C96.8,121.4,94.2,121.4,91.8,121.3C91.8,121.4,91.8,121.3,91.8,121.3z"/>
		<path class="st2" d="M68,97.1c-2.5,0-5.1,0-7.6,0V97C62.9,97,65.5,97,68,97.1C67.9,97,67.9,97.1,68,97.1z"/>
		<path class="st2" d="M67.7,73.8c-2.6,0-5.1,0-7.7,0c0-0.1,0-0.1,0-0.2c2.6,0,5.1,0,7.7,0C67.7,73.7,67.7,73.8,67.7,73.8z"/>
		<path class="st2" d="M67.7,96.1c-2.5,0-5,0-7.5,0V96C62.7,96,65.2,96,67.7,96.1C67.7,96,67.7,96,67.7,96.1z"/>
		<path class="st2" d="M60,92.9c2.5,0,4.9,0,7.4,0V93C64.9,93,62.5,93,60,92.9C60,93,60,93,60,92.9z"/>
		<path class="st2" d="M92.9,48.4c2.5,0,4.9,0,7.4,0v0.1C97.8,48.5,95.4,48.5,92.9,48.4L92.9,48.4z"/>
		<path class="st2" d="M72.8,122.4c-2.4,0-4.7,0-7.1,0v-0.1C68.1,122.3,70.4,122.3,72.8,122.4C72.9,122.3,72.8,122.4,72.8,122.4z"/>
		<path class="st2" d="M60,89.9c2.4,0,4.8,0,7.2,0V90C64.8,90,62.4,90,60,89.9C60,90,60,89.9,60,89.9z"/>
		<path class="st2" d="M93.9,118.2c2.2,0,4.5,0,6.7,0v0.1c-2.3,0-4.5,0-6.8,0C93.9,118.3,93.9,118.3,93.9,118.2z"/>
		<path class="st2" d="M63.1,42.5c-2.2,0-4.4,0-6.6,0v-0.1c2.2,0,4.5,0,6.7,0C63.1,42.4,63.1,42.4,63.1,42.5z"/>
		<path d="M96.9,81.6c-0.3,0.1-0.6,0.3-0.9,0.4c-5.2,0.4-9.4,3-12.8,6.8c-0.6,0.7-1,1.5-1.4,2.1c-3.6-6.3-9.3-9.1-16.5-9.5
			c6.7-0.5,12.9-1.9,16.3-8.9C85.4,78,90.8,80.4,96.9,81.6C97,81.6,96.9,81.6,96.9,81.6z M72,81.8c4.1,1.8,7.5,3.8,9.8,7.5
			c2.7-3.9,6.6-6,11-7.7c-4.3-1.5-7.7-3.8-10.5-7.1C80,78.6,76.5,80.6,72,81.8z"/>
		<path d="M75.7,89.5c-2.1-1-4.2-2.2-6.4-2.9c-2.6-0.8-5.4-1.3-8.1-1.9c-3.3-0.7-6.3-2.2-9-4.2c-0.3-0.2-0.6-0.3-0.9-0.4
			c0.1-0.1,0.3-0.3,0.4-0.4c1.5,0.8,3,1.7,4.4,2.5c3.3,1.9,7.2,2.1,10.8,3c2.4,0.6,4.7,1.6,6.9,2.6c0.8,0.3,1.4,1,2.1,1.5
			C75.8,89.4,75.8,89.4,75.7,89.5z"/>
		<path d="M69.2,80.2c4.3-1.5,8.5-3.2,11.3-7.1C78.2,77.7,74,79.4,69.2,80.2z"/>
		<path d="M82,66c1.2,1.8,2.4,3.6,3.5,5.3C83.9,70.7,82.1,68,82,66z"/>
		<path d="M82.5,121.2c1.9-3.2,5-4.6,8.4-5.2c4-0.7,8-1,12.1-1.3c7.2-0.5,13.7-2.6,17.6-9.1c3.3-5.4,4.3-11.3,1.3-17.3
			c-0.7-1.3-1.6-2.5-2.3-4c0.4,0.3,0.7,0.7,1.1,1.1c3.7,4.3,4.2,9.3,3,14.5c-2,9.3-9.2,14.4-18.2,15.3c-3.7,0.4-7.5,0.5-11.2,1
			C89.9,116.7,85.7,117.8,82.5,121.2z"/>
		<path d="M76.2,110c-1.5-0.8-2.1-2-1.9-3.7C74.9,107.5,75.6,108.7,76.2,110z"/>
		<path d="M113.8,61.5c-6-6-14.7-7-23.2-2.4c1.3-2.3,6.2-4,10.8-3.5C106.2,56.2,111,56.9,113.8,61.5z"/>
		<path d="M113.9,57.8c3.8,2.5,4.8,9.1,2.2,12.6c-2,2.6-5.8,3.3-8.6,1.3c0.8,0.1,1.5,0.2,2.1,0.3c3.9,0.7,6.9-1.6,7.2-5.6
			c0.2-2.7-0.3-5.2-2.1-7.4C114.4,58.7,114.1,58.3,113.9,57.8z"/>
		<path d="M86.6,55.3c-5.9-2.1-7.3-1.7-12.2,3.8c0.6-3,2.6-4.4,5.2-5.2C82.1,53.2,84.6,53.4,86.6,55.3z"/>
		<path d="M49.1,93.4c-3.6,5-2.1,9.5,1.4,13.9c-3.1-1.4-4.6-6.3-4-10.1C46.8,95.6,47.2,94,49.1,93.4z"/>
		<path d="M51.6,98c1.9,0.8,3.6,0.8,5-0.9c1.4-1.7,0.1-3.4-0.3-5.3c2.1,1.7,1.8,4.9,0.7,6.1C55.4,99.5,53.3,99.7,51.6,98z"/>
		<g>
			<g>
				<path class="st3" d="M52,41.2c0,0,1.5-2,3.9-2.5s4.8,0.2,6.4,1.8C64,42,65,43.9,65,43.9l1.6-1.3c0,0,1.5-1.8,4.7-3.6
					c1.9-0.9,3.2-1.7,5.8-2.2c2.6-0.5,3.9-0.6,6.9-0.4c3,0.3,5.6,1,7.4,2.1c1.9,1.1,2,0.7,6.6,5l3,4.7l1.3,2.9l-5.4,0.1l-3.8-0.6
					L92.7,49l-1.3-1.6L89.7,46l-2.1-1.3L84.7,44L83,43.4L81.6,43l-3,0.4l-2.9,1.4l-2.1,2l-2,2.8L71,51.5l-0.2,3.3l-0.4,2.7l0.4,2
					l0.9,2l0.4,1.9l-1.7,2.7L69,70.2l-0.5,4.2l-0.6,1.9l-3.4,0.3l-2.4-0.3L60.6,76l-1.1-0.8l-0.2-5.5l0.1-8v-2.8l0.1-2.2l-0.1-4.2
					l-0.1-4.1l-0.5-2.1l-0.6-1.5l-1.1-1.3l-1.3-1.1L53,41.7L52,41.2z"/>
				<path class="st3" d="M59.6,86.9l7.9,0.3l0.6,3l0.5,4.4l0.9,5.5l0.9,2.9l1.9,2.6l-0.9,2.6l-0.8,2.6l0.2,4l0.3,3.2l1.4,3.1
					l1.6,1.9l2.3,1.5l1.3,0.5l1.6,0.2h1.9l1.2,0.1l2.7-0.3l2.5-1.1l1.7-1l1.3-1.2l1.3-1.2l0.9-1.5l0.8-1.2l3-0.2l4.4-0.1h0.8
					l-1.4,3.9l-3,4.1l-2.7,2.7l-4,2.3l-3.6,0.9l-4.3,0.5l-4.3-0.1l-3.2-0.6l-2.5-0.9l-2.3-1.5l-1.7-1.1l-1.8-1.6l-1.7-1.8l-1.8,2.3
					L62,129l-2.2,1.4l-2.5,0.1l-2.1-0.7l-2.2-1.6l-1-0.7c0,0,3.5-0.7,5-1.9l1.7-3.1l0.8-2.7l0.1-5.4l-0.1-6.3l0.2-9l-0.1-4.8
					l-0.1-3.9L59.6,86.9z"/>
				<polygon class="st3" points="95.9,108.5 100,109.2 103.4,109.1 104.6,108.8 105.5,103.7 106.8,97 107.8,92.2 108.4,89.2 
					109.1,87.1 109.7,85.4 109.5,83.2 108.4,79.4 107.6,76.5 107.2,73.7 106.7,72.6 105.4,71.2 104.7,69.3 104.8,68 105.4,66.4 
					105.9,65.7 105.3,62.6 104.9,60.7 104.6,58.6 104.3,58.1 100.1,57.7 95.9,58.3 95.7,59.4 95.8,60.8 95.8,63.2 95.6,65.9 
					95.3,68.4 94.6,71 93.8,73.9 93.1,75.8 94.3,76 96.5,76.3 97.8,77.2 98.1,78.9 99.1,79.9 100.4,80.4 102.2,80.8 103.1,81.9 
					103.7,83.8 103.9,85 103.2,86.6 101.9,87.5 99,87.9 98,88.2 98,89.8 97.4,91.2 96.3,92.4 93.2,92.6 94.1,95.3 94.9,98.3 
					95.3,100.7 95.6,103 95.9,105.3 95.9,106.7 				"/>
			</g>
		</g>
	</g>
</g>
</svg>
